<?xml version="1.0" encoding="UTF-8"?>
<svg version="1.1" xmlns="http://www.w3.org/2000/svg" width="512" height="512">
<path d="M0 0 C1.31834839 0.00858032 1.31834839 0.00858032 2.66333008 0.01733398 C14.90879528 0.35200806 24.57547459 5.45974717 32.9609375 14.3046875 C38.14149973 20.64232962 42.76834308 29.16077456 42.25 37.5 C43.40371094 37.61601563 44.55742187 37.73203125 45.74609375 37.8515625 C50.11940724 38.40602076 54.13919381 39.47702869 58.3125 40.875 C59.06692383 41.12612549 59.82134766 41.37725098 60.59863281 41.63598633 C69.46665003 44.72941831 77.8511444 48.86702197 86.265625 53.01171875 C87.13590332 53.44000977 88.00618164 53.86830078 88.90283203 54.30957031 C90.86374846 55.30410209 92.78537319 56.37561532 94.6953125 57.46484375 C97.13276514 58.78431878 97.13276514 58.78431878 99.1640625 57.8046875 C99.72867187 57.33289063 100.29328125 56.86109375 100.875 56.375 C109.53420343 50.22284213 120.76481413 49.23845182 131.03125 50.96875 C143.77641711 53.97603662 153.30861623 61.51583227 160.25 72.5 C165.87801539 84.18347498 166.4347363 94.83085483 163.39453125 107.3828125 C162.25 110.5 162.25 110.5 160.83642578 112.48779297 C159.2054773 114.83596264 158.0588208 116.7507152 157.25 119.5 C158.21201478 123.57491653 160.30999258 126.8387308 162.5 130.375 C163.65746128 132.39851081 164.80581643 134.42725579 165.9453125 136.4609375 C166.79851074 137.97445801 166.79851074 137.97445801 167.66894531 139.51855469 C169.97953379 143.87570516 171.73566355 148.35521338 173.375 153 C173.64473633 153.75780762 173.91447266 154.51561523 174.19238281 155.29638672 C178.58512755 167.97039538 178.58512755 167.97039538 178.25 173.5 C179.52875 173.561875 180.8075 173.62375 182.125 173.6875 C192.27421148 174.878722 200.69398423 180.87876894 207.25 188.5 C214.67230479 199.99702664 217.49680751 211.41969678 215.13671875 225.0390625 C212.27473903 236.20960889 206.13902066 245.63063552 196.375 251.8125 C190.54188816 255.07584153 184.98285557 257.5 178.25 257.5 C178.13398438 258.65371094 178.01796875 259.80742187 177.8984375 260.99609375 C177.34397924 265.36940724 176.27297131 269.38919381 174.875 273.5625 C174.62387451 274.31692383 174.37274902 275.07134766 174.11401367 275.84863281 C171.02058169 284.71665003 166.88297803 293.1011444 162.73828125 301.515625 C162.09584473 302.82116333 162.09584473 302.82116333 161.44042969 304.15307617 C160.44636516 306.11286746 159.37471489 308.03305404 158.28515625 309.94140625 C156.96608517 312.38647256 156.96608517 312.38647256 157.9453125 314.44921875 C158.41710937 315.02285156 158.88890625 315.59648437 159.375 316.1875 C165.1099344 324.29020892 166.17965937 333.78314935 165.25 343.5 C163.24812924 354.96808135 158.06279649 365.09826015 148.625 372.0625 C138.2258023 379.11306388 126.86723694 382.27468687 114.37109375 379.96875 C108.56656442 378.48330717 103.50224477 376.36486078 98.25 373.5 C97.59 373.17 96.93 372.84 96.25 372.5 C94.09419492 373.38736561 94.09419492 373.38736561 91.69140625 374.78125 C90.7569165 375.29059082 89.82242676 375.79993164 88.85961914 376.32470703 C87.35129517 377.15397705 87.35129517 377.15397705 85.8125 378 C56.92037321 393.5 56.92037321 393.5 42.25 393.5 C42.20875 394.5725 42.1675 395.645 42.125 396.75 C40.93104071 406.10268112 35.2524909 415.31400507 28.25 421.5 C25.05580812 423.82931933 21.78362924 425.73318538 18.25 427.5 C17.58742188 427.84160156 16.92484375 428.18320312 16.2421875 428.53515625 C7.18456764 432.35356462 -5.61445185 431.97561144 -14.8125 428.875 C-26.69082063 423.67255023 -34.72075529 416.17817527 -39.81640625 404.19921875 C-41.0694199 400.57648891 -41.53378951 397.31971869 -41.75 393.5 C-42.90371094 393.38398438 -44.05742187 393.26796875 -45.24609375 393.1484375 C-49.61940724 392.59397924 -53.63919381 391.52297131 -57.8125 390.125 C-58.56692383 389.87387451 -59.32134766 389.62274902 -60.09863281 389.36401367 C-68.96665003 386.27058169 -77.3511444 382.13297803 -85.765625 377.98828125 C-87.07104248 377.34584473 -87.07104248 377.34584473 -88.40283203 376.69042969 C-90.36374846 375.69589791 -92.28537319 374.62438468 -94.1953125 373.53515625 C-96.63276514 372.21568122 -96.63276514 372.21568122 -98.6640625 373.1953125 C-99.51097656 373.90300781 -99.51097656 373.90300781 -100.375 374.625 C-109.03420343 380.77715787 -120.26481413 381.76154818 -130.53125 380.03125 C-143.27641711 377.02396338 -152.80861623 369.48416773 -159.75 358.5 C-165.37801539 346.81652502 -165.9347363 336.16914517 -162.89453125 323.6171875 C-161.75 320.5 -161.75 320.5 -160.33642578 318.51220703 C-158.7054773 316.16403736 -157.5588208 314.2492848 -156.75 311.5 C-157.71201478 307.42508347 -159.80999258 304.1612692 -162 300.625 C-163.15746128 298.60148919 -164.30581643 296.57274421 -165.4453125 294.5390625 C-166.01411133 293.53004883 -166.58291016 292.52103516 -167.16894531 291.48144531 C-169.47953379 287.12429484 -171.23566355 282.64478662 -172.875 278 C-173.14473633 277.24219238 -173.41447266 276.48438477 -173.69238281 275.70361328 C-178.08512755 263.02960462 -178.08512755 263.02960462 -177.75 257.5 C-179.02875 257.438125 -180.3075 257.37625 -181.625 257.3125 C-191.77421148 256.121278 -200.19398423 250.12123106 -206.75 242.5 C-214.17230479 231.00297336 -216.99680751 219.58030322 -214.63671875 205.9609375 C-211.77473903 194.79039111 -205.63902066 185.36936448 -195.875 179.1875 C-190.04188816 175.92415847 -184.48285557 173.5 -177.75 173.5 C-177.63398438 172.34628906 -177.51796875 171.19257813 -177.3984375 170.00390625 C-176.84397924 165.63059276 -175.77297131 161.61080619 -174.375 157.4375 C-174.12387451 156.68307617 -173.87274902 155.92865234 -173.61401367 155.15136719 C-170.52058169 146.28334997 -166.38297803 137.8988556 -162.23828125 129.484375 C-161.59584473 128.17883667 -161.59584473 128.17883667 -160.94042969 126.84692383 C-159.94636516 124.88713254 -158.87471489 122.96694596 -157.78515625 121.05859375 C-156.46608517 118.61352744 -156.46608517 118.61352744 -157.4453125 116.55078125 C-157.91710937 115.97714844 -158.38890625 115.40351563 -158.875 114.8125 C-164.6099344 106.70979108 -165.67965937 97.21685065 -164.75 87.5 C-162.74812924 76.03191865 -157.56279649 65.90173985 -148.125 58.9375 C-137.53057413 51.75457316 -126.37445669 48.94292229 -113.68359375 50.99609375 C-105.74157898 52.7914151 -105.74157898 52.7914151 -102.76879883 54.91577148 C-100.41596505 56.55560946 -98.51068307 57.69701546 -95.75 58.5 C-91.61308313 57.51591991 -88.28542969 55.40298288 -84.6875 53.1875 C-82.65491669 52.0296293 -80.61843218 50.87858044 -78.578125 49.734375 C-77.58748047 49.17169922 -76.59683594 48.60902344 -75.57617188 48.02929688 C-69.57856226 44.78387301 -63.21336818 42.61731027 -56.75 40.5 C-55.75226563 40.16355469 -54.75453125 39.82710937 -53.7265625 39.48046875 C-49.5509166 38.13960885 -46.16544072 37.36080922 -41.75 37.5 C-41.70875 36.4275 -41.6675 35.355 -41.625 34.25 C-40.43185121 24.90366781 -34.75567765 15.67660337 -27.75 9.5 C-19.02218693 3.2291163 -10.75045025 -0.08149751 0 0 Z M-50.9375 61 C-51.72471436 61.26337158 -52.51192871 61.52674316 -53.32299805 61.7980957 C-63.52730709 65.32288792 -73.58053218 69.7712996 -82.75 75.5 C-82.255 77.2015625 -82.255 77.2015625 -81.75 78.9375 C-79.05009944 91.34139099 -79.59184908 104.64873512 -86.0703125 115.765625 C-92.424995 124.86358574 -101.76417755 132.14653161 -112.75 134.5 C-115.64315067 134.71402768 -118.53709528 134.6898701 -121.4375 134.6875 C-122.24171387 134.68814453 -123.04592773 134.68878906 -123.87451172 134.68945312 C-129.42871222 134.63995245 -134.40025507 134.08510961 -139.75 132.5 C-144.59571162 140.88978263 -148.70694523 149.38821754 -152.1875 158.4375 C-152.52910156 159.31237061 -152.87070313 160.18724121 -153.22265625 161.08862305 C-155.16561015 166.27230164 -156.29585497 170.97989909 -156.75 176.5 C-156.04875 176.82871094 -155.3475 177.15742188 -154.625 177.49609375 C-143.92412705 182.86106946 -137.01910319 190.24823411 -132.75 201.5 C-129.43048606 212.95319208 -129.95915981 224.7077174 -135.2265625 235.53515625 C-140.68644947 244.59757138 -147.73496746 250.22154207 -156.75 255.5 C-155.58552665 262.4692945 -153.75159368 268.78514928 -151.0625 275.3125 C-150.71380859 276.17327148 -150.36511719 277.03404297 -150.00585938 277.92089844 C-147.05499224 285.06327758 -143.6462859 291.82761039 -139.75 298.5 C-138.615625 298.17 -137.48125 297.84 -136.3125 297.5 C-123.71257413 294.72881377 -110.13039499 295.31634384 -99.0625 302.25 C-89.54427058 309.0990963 -83.84557392 317.08077175 -80.75 328.5 C-80.47481669 331.44300185 -80.46547164 334.35847527 -80.5 337.3125 C-80.50386719 338.10769043 -80.50773437 338.90288086 -80.51171875 339.72216797 C-80.59291755 345.22677022 -81.17956702 350.1997887 -82.75 355.5 C-74.36021737 360.34571162 -65.86178246 364.45694523 -56.8125 367.9375 C-55.50019409 368.44990234 -55.50019409 368.44990234 -54.16137695 368.97265625 C-48.97769836 370.91561015 -44.27010091 372.04585497 -38.75 372.5 C-38.255 371.365625 -37.76 370.23125 -37.25 369.0625 C-32.28038386 359.19326231 -24.47368514 352.390241 -14.125 348.75 C-2.51945853 345.23857976 9.2486042 345.60742907 20.28515625 350.9765625 C29.33220401 356.427191 34.97062481 362.91419956 39.25 372.5 C44.74821433 371.97085769 49.58619349 370.94783689 54.75 368.9375 C55.42708008 368.67936523 56.10416016 368.42123047 56.80175781 368.15527344 C64.53938375 365.12223812 71.88747777 361.33680736 79.25 357.5 C80.58163267 356.8299428 81.91397856 356.16126314 83.25 355.5 C82.92 354.365625 82.59 353.23125 82.25 352.0625 C79.54901539 339.65362869 80.11450247 326.41297595 86.53515625 315.26953125 C87.98280257 313.18475925 89.52070204 311.3572505 91.25 309.5 C91.88679687 308.81035156 92.52359375 308.12070312 93.1796875 307.41015625 C101.54671166 299.18105007 110.94431565 296.07202163 122.5 296.0625 C128.63016141 296.17008039 134.34598153 296.75066119 140.25 298.5 C152.35093537 277.61676433 152.35093537 277.61676433 157.25 254.5 C156.54875 254.17128906 155.8475 253.84257812 155.125 253.50390625 C144.42412705 248.13893054 137.51910319 240.75176589 133.25 229.5 C129.93048606 218.04680792 130.45915981 206.2922826 135.7265625 195.46484375 C141.177191 186.41779599 147.66419956 180.77937519 157.25 176.5 C156.72085769 171.00178567 155.69783689 166.16380651 153.6875 161 C153.42936523 160.32291992 153.17123047 159.64583984 152.90527344 158.94824219 C149.87223812 151.21061625 146.08680736 143.86252223 142.25 136.5 C141.5799428 135.16836733 140.91126314 133.83602144 140.25 132.5 C139.115625 132.83 137.98125 133.16 136.8125 133.5 C124.40860901 136.19990056 111.10126488 135.65815092 99.984375 129.1796875 C92.47724816 123.93615997 86.66124822 117.00386998 83.25 108.5 C82.89035156 107.61183594 82.53070313 106.72367188 82.16015625 105.80859375 C81.02536079 101.68339309 80.95025552 97.94331823 81 93.6875 C81.00386719 92.89230957 81.00773438 92.09711914 81.01171875 91.27783203 C81.09291755 85.77322978 81.67956702 80.8002113 83.25 75.5 C74.86021737 70.65428838 66.36178246 66.54305477 57.3125 63.0625 C56.00019409 62.55009766 56.00019409 62.55009766 54.66137695 62.02734375 C49.47769836 60.08438985 44.77010091 58.95414503 39.25 58.5 C38.5075 60.2015625 38.5075 60.2015625 37.75 61.9375 C33.25985199 70.80789729 26.35956098 77.50255552 17.25 81.5 C4.30271309 85.6132175 -7.4033523 85.44160825 -19.9375 79.8125 C-28.52169239 75.10907792 -35.63056002 67.85831994 -38.75 58.5 C-43.20830458 58.5 -46.76981384 59.59837141 -50.9375 61 Z " fill="#E63950" transform="translate(255.75,40.5)"/>
<path d="M0 0 C1.57317555 1.34174972 3.13580518 2.6959654 4.6875 4.0625 C5.50605469 4.73796875 6.32460938 5.4134375 7.16796875 6.109375 C24.1673464 20.55225709 34.66250372 40.55814909 39.6875 62.0625 C39.93113281 63.03703125 40.17476562 64.0115625 40.42578125 65.015625 C46.13986686 92.22555649 39.06181442 120.75970591 24.6875 144.0625 C22.21565701 147.58951707 19.5322329 150.83231665 16.6875 154.0625 C16.01203125 154.88105469 15.3365625 155.69960938 14.640625 156.54296875 C0.19774291 173.5423464 -19.80814909 184.03750372 -41.3125 189.0625 C-42.28703125 189.30613281 -43.2615625 189.54976562 -44.265625 189.80078125 C-71.47555649 195.51486686 -100.00970591 188.43681442 -123.3125 174.0625 C-126.83951707 171.59065701 -130.08231665 168.9072329 -133.3125 166.0625 C-134.54033203 165.04929687 -134.54033203 165.04929687 -135.79296875 164.015625 C-152.7923464 149.57274291 -163.28750372 129.56685091 -168.3125 108.0625 C-168.55613281 107.08796875 -168.79976562 106.1134375 -169.05078125 105.109375 C-174.76486686 77.89944351 -167.68681442 49.36529409 -153.3125 26.0625 C-150.84065701 22.53548293 -148.1572329 19.29268335 -145.3125 16.0625 C-144.63703125 15.24394531 -143.9615625 14.42539063 -143.265625 13.58203125 C-128.82274291 -3.4173464 -108.81685091 -13.91250372 -87.3125 -18.9375 C-86.33796875 -19.18113281 -85.3634375 -19.42476562 -84.359375 -19.67578125 C-55.82652353 -25.66768006 -22.89788298 -18.01682956 0 0 Z " fill="#8C3F0A" transform="translate(320.3125,170.9375)"/>
<path d="M0 0 C10.73721451 6.91839659 17.30272912 15.56594356 20.82421875 27.8828125 C23.47430625 40.54246615 20.83281433 52.1432419 14 63 C7.84774142 71.90498064 -1.44143123 77.65821626 -12 80 C-13.32 80 -14.64 80 -16 80 C-16.17402344 81.73056641 -16.17402344 81.73056641 -16.3515625 83.49609375 C-16.90602076 87.86940724 -17.97702869 91.88919381 -19.375 96.0625 C-19.62612549 96.81692383 -19.87725098 97.57134766 -20.13598633 98.34863281 C-23.22941831 107.21665003 -27.36702197 115.6011444 -31.51171875 124.015625 C-32.15415527 125.32116333 -32.15415527 125.32116333 -32.80957031 126.65307617 C-33.80363484 128.61286746 -34.87528511 130.53305404 -35.96484375 132.44140625 C-37.28391483 134.88647256 -37.28391483 134.88647256 -36.3046875 136.94921875 C-35.83289063 137.52285156 -35.36109375 138.09648437 -34.875 138.6875 C-29.1400656 146.79020892 -28.07034063 156.28314935 -29 166 C-31.00187076 177.46808135 -36.18720351 187.59826015 -45.625 194.5625 C-56.0241977 201.61306388 -67.38276306 204.77468687 -79.87890625 202.46875 C-85.68343558 200.98330717 -90.74775523 198.86486078 -96 196 C-96.66 195.67 -97.32 195.34 -98 195 C-100.15580508 195.88736561 -100.15580508 195.88736561 -102.55859375 197.28125 C-103.4930835 197.79059082 -104.42757324 198.29993164 -105.39038086 198.82470703 C-106.39593018 199.37755371 -107.40147949 199.93040039 -108.4375 200.5 C-137.32962679 216 -137.32962679 216 -152 216 C-152.04125 217.0725 -152.0825 218.145 -152.125 219.25 C-153.31895929 228.60268112 -158.9975091 237.81400507 -166 244 C-169.19419188 246.32931933 -172.46637076 248.23318538 -176 250 C-176.66257812 250.34160156 -177.32515625 250.68320312 -178.0078125 251.03515625 C-187.06543236 254.85356462 -199.86445185 254.47561144 -209.0625 251.375 C-220.94082063 246.17255023 -228.97075529 238.67817527 -234.06640625 226.69921875 C-235.3194199 223.07648891 -235.78378951 219.81971869 -236 216 C-237.15371094 215.88398438 -238.30742187 215.76796875 -239.49609375 215.6484375 C-243.86937278 215.09398361 -247.88925993 214.02310972 -252.0625 212.625 C-252.81619873 212.37387451 -253.56989746 212.12274902 -254.34643555 211.86401367 C-266.65254815 207.56823776 -278.88310376 201.81062939 -290 195 C-288.36642136 191.42946384 -286.27797032 188.93403598 -283.6328125 186.07421875 C-281.39072391 183.22601531 -279.7515375 180.17324001 -278 177 C-277.50298584 177.24121582 -277.00597168 177.48243164 -276.49389648 177.73095703 C-255.35707278 187.96371319 -255.35707278 187.96371319 -233 195 C-232.89945313 194.26652344 -232.79890625 193.53304687 -232.6953125 192.77734375 C-230.66836568 184.68094383 -222.60825733 177.80231865 -215.6875 173.59375 C-204.17805974 167.40742586 -192.85906368 166.78022432 -180.3125 169.90234375 C-169.25328 173.56701453 -160.43274233 181.76391842 -155 192 C-155 192.99 -155 193.98 -155 195 C-141.12542585 191.42352299 -127.38676093 186.6370231 -115.046875 179.2265625 C-113 178 -113 178 -111 178 C-111.495 176.865625 -111.99 175.73125 -112.5 174.5625 C-116.13888799 163.52395939 -115.07697755 150.37400986 -110 140 C-108.24505046 137.06665494 -106.27793693 134.54268505 -104 132 C-103.49855469 131.39542969 -102.99710938 130.79085937 -102.48046875 130.16796875 C-96.70298487 123.71574223 -87.79619502 118.55768851 -79.03637695 117.83886719 C-61.90294553 117.48757976 -61.90294553 117.48757976 -54 121 C-53.62101562 120.00033203 -53.62101562 120.00033203 -53.234375 118.98046875 C-52.02832639 116.06839567 -50.6739071 113.25604619 -49.28344727 110.4284668 C-44.04590741 99.70468745 -39.82320553 88.61542832 -37 77 C-37.825 76.79375 -38.65 76.5875 -39.5 76.375 C-49.62656639 72.39670606 -56.41410286 64.2561695 -60.96484375 54.61328125 C-65.39026901 43.44116993 -64.73466031 32.27043395 -61 21 C-56.02616606 10.64795537 -47.88940336 2.05841232 -37 -2 C-25.5911313 -5.88746637 -10.66091507 -6.01112956 0 0 Z " fill="#E63950" transform="translate(450,218)"/>
<path d="M0 0 C1.31834839 0.00858032 1.31834839 0.00858032 2.66333008 0.01733398 C14.90879528 0.35200806 24.57547459 5.45974717 32.9609375 14.3046875 C38.14149973 20.64232962 42.76834308 29.16077456 42.25 37.5 C43.40371094 37.61601563 44.55742187 37.73203125 45.74609375 37.8515625 C50.11940724 38.40602076 54.13919381 39.47702869 58.3125 40.875 C59.06692383 41.12612549 59.82134766 41.37725098 60.59863281 41.63598633 C69.46665003 44.72941831 77.8511444 48.86702197 86.265625 53.01171875 C87.13590332 53.44000977 88.00618164 53.86830078 88.90283203 54.30957031 C90.86374846 55.30410209 92.78537319 56.37561532 94.6953125 57.46484375 C97.13276514 58.78431878 97.13276514 58.78431878 99.1640625 57.8046875 C99.72867188 57.33289063 100.29328125 56.86109375 100.875 56.375 C109.53420343 50.22284213 120.76481413 49.23845182 131.03125 50.96875 C143.77641711 53.97603662 153.30861623 61.51583227 160.25 72.5 C165.87801539 84.18347498 166.4347363 94.83085483 163.39453125 107.3828125 C162.25 110.5 162.25 110.5 160.83642578 112.48779297 C159.2054773 114.83596264 158.0588208 116.7507152 157.25 119.5 C158.21201478 123.57491653 160.30999258 126.8387308 162.5 130.375 C163.65746128 132.39851081 164.80581643 134.42725579 165.9453125 136.4609375 C166.79851074 137.97445801 166.79851074 137.97445801 167.66894531 139.51855469 C169.97953379 143.87570516 171.73566355 148.35521338 173.375 153 C173.64473633 153.75780762 173.91447266 154.51561523 174.19238281 155.29638672 C178.58512755 167.97039538 178.58512755 167.97039538 178.25 173.5 C177.32058594 173.56058594 176.39117187 173.62117187 175.43359375 173.68359375 C174.19738281 173.76738281 172.96117187 173.85117188 171.6875 173.9375 C169.86025391 174.05931641 169.86025391 174.05931641 167.99609375 174.18359375 C164.37519214 174.4894259 160.83982228 174.9502074 157.25 175.5 C157.07984375 174.95287354 156.9096875 174.40574707 156.734375 173.84204102 C153.16986602 162.49320374 149.23303168 151.63377948 143.94921875 140.96875 C142.58005707 138.17377167 141.35154821 135.40763994 140.25 132.5 C139.115625 132.995 137.98125 133.49 136.8125 134 C125.77395939 137.63888799 112.62400986 136.57697755 102.25 131.5 C99.3168643 129.74517571 96.78968844 127.78132187 94.25 125.5 C93.63382813 124.97535156 93.01765625 124.45070313 92.3828125 123.91015625 C85.98914986 118.07902616 80.93086546 109.20883764 80.04516602 100.48168945 C79.94570341 98.21277783 79.92233149 95.9585109 79.9375 93.6875 C79.93943359 92.49471436 79.93943359 92.49471436 79.94140625 91.27783203 C80.03618346 85.49523725 80.88218874 80.82757534 83.25 75.5 C82.58355469 75.24734375 81.91710937 74.9946875 81.23046875 74.734375 C78.31839567 73.52832639 75.50604619 72.1739071 72.6784668 70.78344727 C61.95468745 65.54590741 50.86542832 61.32320553 39.25 58.5 C39.14945313 59.23347656 39.04890625 59.96695313 38.9453125 60.72265625 C36.91836568 68.81905617 28.85825733 75.69768135 21.9375 79.90625 C10.53361979 86.03583561 -0.49894681 86.77723007 -12.8671875 83.3984375 C-23.6418392 80.04048372 -32.20759477 72.94692738 -38.0078125 63.2265625 C-38.75 61.5 -38.75 61.5 -38.75 58.5 C-54.65657915 62.60027105 -69.12157382 69.11038265 -83.75 76.5 C-84.19730469 75.76394531 -84.64460937 75.02789062 -85.10546875 74.26953125 C-88.30495079 69.1053353 -91.33052666 64.65162647 -95.75 60.5 C-95.75 59.84 -95.75 59.18 -95.75 58.5 C-83.03279531 51.60984257 -70.51828493 45.01030024 -56.75 40.5 C-55.75226563 40.16355469 -54.75453125 39.82710937 -53.7265625 39.48046875 C-49.5509166 38.13960885 -46.16544072 37.36080922 -41.75 37.5 C-41.70875 36.4275 -41.6675 35.355 -41.625 34.25 C-40.43185121 24.90366781 -34.75567765 15.67660337 -27.75 9.5 C-19.02218693 3.2291163 -10.75045025 -0.08149751 0 0 Z " fill="#E63950" transform="translate(255.75,40.5)"/>
<path d="M0 0 C3.09156098 1.76206253 5.37985974 3.75971948 7 7 C7.084915 8.8863912 7.107193 10.77578515 7.09765625 12.6640625 C7.09443359 13.78554687 7.09121094 14.90703125 7.08789062 16.0625 C7.07951172 17.238125 7.07113281 18.41375 7.0625 19.625 C7.05798828 20.80835938 7.05347656 21.99171875 7.04882812 23.2109375 C7.03701467 26.14067507 7.02054258 29.07031272 7 32 C7.92683594 31.96648437 8.85367188 31.93296875 9.80859375 31.8984375 C14.51658548 32.04826343 17.21616962 34.16342195 20.453125 37.49609375 C23.50606754 41.01399593 24.85646556 43.53594868 25.3125 48.1875 C24.82585619 54.12455453 22.59903251 58.81423694 18.25 62.9375 C15.21374303 64.86435538 14.16950424 65.29927685 10.796875 65.62890625 C9.54390625 65.75136719 8.2909375 65.87382812 7 66 C7.02094727 66.73114014 7.04189453 67.46228027 7.06347656 68.21557617 C7.14680314 71.53941001 7.19871332 74.86302384 7.25 78.1875 C7.30027344 79.91323242 7.30027344 79.91323242 7.3515625 81.67382812 C7.36445313 82.78564453 7.37734375 83.89746094 7.390625 85.04296875 C7.41157227 86.06414795 7.43251953 87.08532715 7.45410156 88.13745117 C6.87369407 91.7962027 5.58321225 93.38533354 3 96 C-1.11313571 98.62045741 -5.27866415 98.92317589 -10 98 C-14.52410236 95.95609367 -18.67051488 93.37962595 -22.875 90.75 C-36.22899218 82.52617944 -47.23544047 78.15588338 -62.875 77.4375 C-63.75414062 77.39431641 -64.63328125 77.35113281 -65.5390625 77.30664062 C-67.69255797 77.20130661 -69.84626064 77.10022351 -72 77 C-71.70480469 78.26585937 -71.40960938 79.53171875 -71.10546875 80.8359375 C-69.94509732 86.06938675 -69.08801906 91.32243621 -68.3125 96.625 C-68.17005859 97.52734375 -68.02761719 98.4296875 -67.88085938 99.359375 C-67.13346547 104.46098911 -66.75003299 108.91505567 -68 114 C-71.10052776 117.4696382 -72.94787101 118.83387437 -77.5625 119.5625 C-81.59755725 118.90221791 -83.20520053 117.9545023 -86 115 C-87.75219567 111.40434846 -88.15907309 108.5933964 -88.1875 104.625 C-88.45178615 100.52159851 -88.45178615 100.52159851 -90.546875 97.1171875 C-91.80966058 96.0370362 -93.07530495 94.96021835 -94.34375 93.88671875 C-98.24936931 89.43762883 -98 82.64772828 -98 77 C-98.73605469 77.04640625 -99.47210938 77.0928125 -100.23046875 77.140625 C-108.27001244 77.43799253 -108.27001244 77.43799253 -112.125 75.125 C-114.85322855 72.03300764 -115.12009319 70.40652357 -115.0625 66.375 C-115.05347656 65.55773437 -115.04445312 64.74046875 -115.03515625 63.8984375 C-115.02355469 63.27195312 -115.01195312 62.64546875 -115 62 C-115.90492188 62.05220703 -115.90492188 62.05220703 -116.828125 62.10546875 C-117.62734375 62.13253906 -118.4265625 62.15960938 -119.25 62.1875 C-120.43335938 62.23970703 -120.43335938 62.23970703 -121.640625 62.29296875 C-124.81209006 61.899161 -125.92783006 61.48287029 -128 59 C-128.60373653 55.84684875 -128.55737555 52.7635778 -128.5 49.5625 C-128.51546875 48.70333984 -128.5309375 47.84417969 -128.546875 46.95898438 C-128.52261882 43.05070775 -128.47970576 40.71415655 -126.265625 37.41796875 C-123.65147309 35.78187023 -122.30156582 35.57049613 -119.25 35.75 C-118.45078125 35.78609375 -117.6515625 35.8221875 -116.828125 35.859375 C-116.22484375 35.90578125 -115.6215625 35.9521875 -115 36 C-115.05800781 35.40832031 -115.11601562 34.81664062 -115.17578125 34.20703125 C-115.54776968 27.6919196 -115.54776968 27.6919196 -112.625 24 C-108.95558283 21.20425358 -107.21974302 20.87041937 -102.66748047 20.82641602 C-101.5522702 20.81292618 -100.43705994 20.79943634 -99.28805542 20.78553772 C-98.07666901 20.77509933 -96.86528259 20.76466095 -95.6171875 20.75390625 C-93.06249675 20.72095431 -90.50780933 20.6877429 -87.953125 20.65429688 C-83.91768628 20.60592596 -79.88221965 20.56217935 -75.84667969 20.52319336 C-71.95753411 20.48334751 -68.06867426 20.43181689 -64.1796875 20.37890625 C-62.98044647 20.3704921 -61.78120544 20.36207794 -60.54562378 20.35340881 C-51.23978093 20.21685591 -43.84286847 18.77893177 -35.5625 14.5 C-34.88364746 14.15904297 -34.20479492 13.81808594 -33.50537109 13.46679688 C-28.96376836 11.14352447 -24.6395364 8.56743834 -20.31738281 5.86157227 C-7.07466568 -2.36277444 -7.07466568 -2.36277444 0 0 Z " fill="#E5384F" transform="translate(291,203)"/>
<path d="M0 0 C9.65095691 7.11214663 17.50794446 16.32534288 20.1875 28.25 C21.26694793 41.04020277 20.35465847 53.19730138 11.80078125 63.44921875 C11.26839844 64.04347656 10.73601562 64.63773437 10.1875 65.25 C9.68605469 65.85457031 9.18460937 66.45914063 8.66796875 67.08203125 C2.89048487 73.53425777 -6.01630498 78.69231149 -14.77612305 79.41113281 C-31.90955447 79.76242024 -31.90955447 79.76242024 -39.8125 76.25 C-40.06644531 76.9203125 -40.32039063 77.590625 -40.58203125 78.28125 C-41.76764892 81.14178786 -43.10437339 83.89655013 -44.47851562 86.67016602 C-49.6676918 97.23579503 -53.24662162 108.03234092 -56.8125 119.25 C-63.7425 118.59 -70.6725 117.93 -77.8125 117.25 C-77.06864736 111.29917885 -76.28525851 106.70353739 -74.4375 101.1875 C-74.06081177 100.05586426 -74.06081177 100.05586426 -73.67651367 98.90136719 C-70.58308169 90.03334997 -66.44547803 81.6488556 -62.30078125 73.234375 C-61.65834473 71.92883667 -61.65834473 71.92883667 -61.00292969 70.59692383 C-60.00886516 68.63713254 -58.93721489 66.71694596 -57.84765625 64.80859375 C-56.52858517 62.36352744 -56.52858517 62.36352744 -57.5078125 60.30078125 C-57.97960937 59.72714844 -58.45140625 59.15351563 -58.9375 58.5625 C-64.6724344 50.45979108 -65.74215937 40.96685065 -64.8125 31.25 C-62.81062924 19.78191865 -57.62529649 9.65173985 -48.1875 2.6875 C-33.89888121 -7.00005691 -15.15811612 -9.62501771 0 0 Z " fill="#E63A50" transform="translate(155.8125,96.75)"/>
<path d="M0 0 C9.10038739 7.85942547 15.20979761 18.38080548 16.203125 30.47265625 C16.33767924 37.90677786 16.04062578 46.72421846 11.58642578 52.98779297 C9.9554773 55.33596264 8.8088208 57.2507152 8 60 C8.96201478 64.07491653 11.05999258 67.3387308 13.25 70.875 C14.40746128 72.89851081 15.55581643 74.92725579 16.6953125 76.9609375 C17.54851074 78.47445801 17.54851074 78.47445801 18.41894531 80.01855469 C20.72953379 84.37570516 22.48566355 88.85521338 24.125 93.5 C24.39473633 94.25780762 24.66447266 95.01561523 24.94238281 95.79638672 C29.33512755 108.47039538 29.33512755 108.47039538 29 114 C28.07058594 114.06058594 27.14117187 114.12117188 26.18359375 114.18359375 C24.32927734 114.30927734 24.32927734 114.30927734 22.4375 114.4375 C21.21933594 114.51871094 20.00117188 114.59992188 18.74609375 114.68359375 C15.12519214 114.9894259 11.58982228 115.4502074 8 116 C7.82984375 115.45287354 7.6596875 114.90574707 7.484375 114.34204102 C3.91986602 102.99320374 -0.01696832 92.13377948 -5.30078125 81.46875 C-6.66994293 78.67377167 -7.89845179 75.90763994 -9 73 C-10.134375 73.495 -11.26875 73.99 -12.4375 74.5 C-23.47604061 78.13888799 -36.62599014 77.07697755 -47 72 C-49.9331357 70.24517571 -52.46031156 68.28132187 -55 66 C-55.61617188 65.47535156 -56.23234375 64.95070313 -56.8671875 64.41015625 C-63.26471907 58.57549763 -68.32555945 49.69858536 -69.20483398 40.96557617 C-69.30408496 38.68179364 -69.32204018 36.41082759 -69.3125 34.125 C-69.32861328 33.36058594 -69.34472656 32.59617188 -69.36132812 31.80859375 C-69.3713035 20.05760761 -63.04250241 10.05243174 -55.1875 1.625 C-39.59394991 -13.06544873 -16.72988349 -11.92384423 0 0 Z " fill="#E63A51" transform="translate(405,100)"/>
<path d="M0 0 C10.73721451 6.91839659 17.30272912 15.56594356 20.82421875 27.8828125 C23.47430625 40.54246615 20.83281433 52.1432419 14 63 C8.40233564 71.10224279 0.1174864 76.71766363 -9.328125 79.53125 C-22.40781603 81.82593264 -35.41556245 80.02802642 -46.6484375 72.7890625 C-55.99635491 65.67719178 -61.85312891 55.92590726 -63.71875 44.35546875 C-65.09249644 32.8503423 -62.64606255 22.07791876 -56.01953125 12.5078125 C-43.08662768 -3.55200199 -18.74985735 -10.57205887 0 0 Z " fill="#E63A51" transform="translate(450,218)"/>
<path d="M0 0 C0.74765625 0.00563965 1.4953125 0.0112793 2.265625 0.01708984 C15.36793211 0.30377377 24.88262166 5.72655081 33.8984375 15.1015625 C36.9046447 18.81665699 38.90268735 22.89889353 40.6875 27.3125 C41.23857422 28.67375 41.23857422 28.67375 41.80078125 30.0625 C42.92303919 34.17579781 43.01770796 37.94467346 43 42.1875 C43.01611328 42.95191406 43.03222656 43.71632813 43.04882812 44.50390625 C43.0588035 56.25489239 36.73000241 66.26006826 28.875 74.6875 C20.162557 82.89536136 9.25380489 85.83699747 -2.48828125 85.55859375 C-14.82693974 84.48344094 -24.80751454 78.91018643 -32.80078125 69.57421875 C-40.50189938 60.0385911 -43.15287366 49.40454323 -42.3125 37.3125 C-40.56711191 25.70123178 -35.3419784 16.79406782 -26.3125 9.3125 C-17.84959429 3.17470576 -10.50049437 -0.08307353 0 0 Z " fill="#E63A51" transform="translate(133.3125,335.6875)"/>
<path d="M0 0 C0.13921345 10.30963473 0.24572911 20.61904472 0.31087303 30.92942905 C0.34214422 35.71736996 0.38453938 40.50466634 0.45263672 45.29223633 C0.51798058 49.91532127 0.55373773 54.53778754 0.56926346 59.16129875 C0.58032296 60.92237013 0.60192042 62.68340884 0.63438034 64.44421577 C0.9093581 79.98297744 0.9093581 79.98297744 -2.91162109 84.57397461 C-6.81104086 87.63709984 -9.18007436 88.58147512 -14.22265625 88.52197266 C-20.26047051 87.38722873 -25.39221992 83.46306541 -30.5 80.1875 C-44.01687932 71.6416431 -52.23449992 69.09568751 -69 67 C-69 51.82 -69 36.64 -69 21 C-58.605 20.505 -58.605 20.505 -48 20 C-42.223158 18.5557895 -37.70963324 17.16083408 -32.5625 14.5 C-31.88582275 14.15904297 -31.20914551 13.81808594 -30.51196289 13.46679688 C-26.73032826 11.52763049 -23.05763761 9.46355967 -19.4296875 7.25 C-18.30324829 6.56454102 -18.30324829 6.56454102 -17.15405273 5.86523438 C-15.70927656 4.97535792 -14.27328718 4.07100497 -12.84790039 3.15039062 C-12.1852417 2.73982422 -11.52258301 2.32925781 -10.83984375 1.90625 C-10.26613037 1.53822266 -9.69241699 1.17019531 -9.10131836 0.79101562 C-6.07449135 -0.34839642 -3.20640295 -0.04705708 0 0 Z " fill="#FEA819" transform="translate(288,203)"/>
<path d="M0 0 C17.17666746 13.0692035 27.19436488 34.43439993 32 55 C32.24363281 55.97453125 32.48726562 56.9490625 32.73828125 57.953125 C38.45236686 85.16305649 31.37431442 113.69720591 17 137 C14.52815701 140.52701707 11.8447329 143.76981665 9 147 C8.32453125 147.81855469 7.6490625 148.63710938 6.953125 149.48046875 C-7.48975709 166.4798464 -27.49564909 176.97500372 -49 182 C-49.97453125 182.24363281 -50.9490625 182.48726562 -51.953125 182.73828125 C-79.16305649 188.45236686 -107.69720591 181.37431442 -131 167 C-134.52661779 164.52843684 -137.78084164 161.8573356 -141 159 C-141.93457031 158.17371094 -142.86914062 157.34742188 -143.83203125 156.49609375 C-146.23682627 154.3469133 -148.6254904 152.18252797 -151 150 C-147.35125236 150 -146.65173938 150.81070698 -143.8125 153 C-120.37489556 169.82874505 -91.6473965 175.79545071 -63.32568359 171.4140625 C-50.58735867 169.14614322 -39.24302144 164.2811221 -28 158 C-27.01386719 157.45601562 -26.02773438 156.91203125 -25.01171875 156.3515625 C-2.30040829 142.87596585 13.15435122 119.12484736 19.81811523 93.90356445 C21.86104633 85.26552544 22.50908881 77.04790417 22.4375 68.1875 C22.43065186 66.87595947 22.42380371 65.56441895 22.41674805 64.21313477 C22.25258264 54.27159718 21.16364375 45.40767747 18 36 C17.649375 34.8965625 17.29875 33.793125 16.9375 32.65625 C13.46157871 22.71125299 8.337186 12.41590293 1.72265625 4.15625 C0 2 0 2 0 0 Z " fill="#7C3107" transform="translate(328,178)"/>
<path d="M0 0 C1.91015625 0.23046875 1.91015625 0.23046875 3.91015625 2.23046875 C4.31063069 4.55322052 4.64986665 6.88786232 4.91015625 9.23046875 C11.102803 11.39069436 15.40308233 12.59241446 21.91015625 11.23046875 C25.91015625 16.56380208 25.91015625 16.56380208 25.91015625 19.41796875 C24.91015625 21.23046875 24.91015625 21.23046875 22.8828125 22.5078125 C20.68108474 24.08809459 20.68108474 24.08809459 20.34375 26.75390625 C20.19723484 32.1432864 20.19723484 32.1432864 22.0390625 37.0625 C23.51599362 38.59117793 23.51599362 38.59117793 25.91015625 40.23046875 C24.16015625 45.98046875 24.16015625 45.98046875 21.91015625 48.23046875 C19.9921875 48.06640625 19.9921875 48.06640625 17.72265625 47.60546875 C13.48719723 47.05301757 10.92732795 47.42404106 7.34765625 49.77734375 C4.68069265 52.47329608 3.96950987 55.64043705 2.91015625 59.23046875 C1.91015625 60.23046875 1.91015625 60.23046875 0.0625 60.328125 C-1.98828125 60.29557292 -4.0390625 60.26302083 -6.08984375 60.23046875 C-8.08984375 54.60546875 -8.08984375 54.60546875 -8.08984375 51.23046875 C-9.03859375 50.94171875 -9.98734375 50.65296875 -10.96484375 50.35546875 C-14.08984375 49.23046875 -14.08984375 49.23046875 -16.08984375 47.23046875 C-18.53947552 47.20793432 -18.53947552 47.20793432 -21.21484375 47.60546875 C-22.12492188 47.71632813 -23.035 47.8271875 -23.97265625 47.94140625 C-25.02066406 48.08449219 -25.02066406 48.08449219 -26.08984375 48.23046875 C-28.38364124 44.78977251 -29.08984375 43.50756574 -29.08984375 39.23046875 C-28.1153125 38.54791016 -28.1153125 38.54791016 -27.12109375 37.8515625 C-24.80286388 36.36191858 -24.80286388 36.36191858 -24.55859375 33.453125 C-24.56890625 32.41027344 -24.57921875 31.36742187 -24.58984375 30.29296875 C-24.574375 28.73255859 -24.574375 28.73255859 -24.55859375 27.140625 C-25.20300202 23.61059438 -26.48452331 22.58717014 -29.08984375 20.23046875 C-28.99450468 16.41690587 -27.71067868 13.95684065 -25.08984375 11.23046875 C-22.78515625 11.1640625 -22.78515625 11.1640625 -20.21484375 11.66796875 C-16.03947299 12.31101175 -16.03947299 12.31101175 -12.08984375 10.79296875 C-11.42984375 10.27734375 -10.76984375 9.76171875 -10.08984375 9.23046875 C-9.42984375 9.23046875 -8.76984375 9.23046875 -8.08984375 9.23046875 C-7.94546875 7.93109375 -7.80109375 6.63171875 -7.65234375 5.29296875 C-7.02239666 -0.3765551 -5.69362053 0.11366575 0 0 Z " fill="#FEFCFC" transform="translate(258.08984375,398.76953125)"/>
<path d="M0 0 C0.93106567 -0.00945648 1.86213135 -0.01891296 2.82141113 -0.02865601 C4.32617004 -0.01954697 4.32617004 -0.01954697 5.86132812 -0.01025391 C7.4091095 -0.01455917 7.4091095 -0.01455917 8.98815918 -0.01895142 C11.17033436 -0.02099342 13.35252778 -0.01545411 15.53466797 -0.00292969 C18.87964713 0.01312154 22.22341791 -0.00277432 25.56835938 -0.02197266 C27.68685163 -0.01999025 29.80534314 -0.01614663 31.92382812 -0.01025391 C32.92700073 -0.0163266 33.93017334 -0.02239929 34.96374512 -0.02865601 C36.36034363 -0.01447128 36.36034363 -0.01447128 37.78515625 0 C38.60439575 0.00238678 39.42363525 0.00477356 40.2677002 0.00723267 C42.92061686 0.48285108 43.80693807 1.23475917 45.39257812 3.38818359 C45.76489258 6.61865234 45.76489258 6.61865234 45.75585938 10.57568359 C45.75660713 11.62405396 45.75660713 11.62405396 45.75737 12.69360352 C45.75503204 14.16962531 45.74531977 15.64565128 45.72875977 17.12158203 C45.70516276 19.38008292 45.70820083 21.63740321 45.71484375 23.89599609 C45.67180581 34.96934207 45.67180581 34.96934207 43.39257812 38.38818359 C41.30529785 38.7624054 41.30529785 38.7624054 38.69921875 38.76049805 C37.72480835 38.76672684 36.75039795 38.77295563 35.74645996 38.77937317 C34.69124146 38.77016342 33.63602295 38.76095367 32.54882812 38.75146484 C31.46879517 38.75196335 30.38876221 38.75246185 29.27600098 38.75297546 C26.98948327 38.75063196 24.70296312 38.74088728 22.41650391 38.72436523 C18.90699309 38.70078047 15.39824172 38.70380137 11.88867188 38.71044922 C9.67121941 38.70487255 7.45377015 38.69776274 5.23632812 38.68896484 C4.18110962 38.68987625 3.12589111 38.69078766 2.03869629 38.69172668 C1.06428589 38.68219467 0.08987549 38.67266266 -0.9140625 38.6628418 C-2.20407166 38.65593071 -2.20407166 38.65593071 -3.5201416 38.64888 C-5.60742188 38.38818359 -5.60742188 38.38818359 -7.60742188 36.38818359 C-7.81917907 33.91429485 -7.91141658 31.55507235 -7.90820312 29.07958984 C-7.91248825 28.35706528 -7.91677338 27.63454071 -7.92118835 26.89012146 C-7.92693425 25.36108448 -7.92742999 23.83202015 -7.9230957 22.30297852 C-7.91993858 19.96306686 -7.94337946 17.62442293 -7.96875 15.28466797 C-7.97102327 13.79964352 -7.97172636 12.31461568 -7.97070312 10.82958984 C-7.97991287 10.12951309 -7.98912262 9.42943634 -7.99861145 8.70814514 C-7.95242391 3.85860295 -7.95242391 3.85860295 -6.37211609 1.70381165 C-4.10905633 0.01663838 -2.8072159 0.00817857 0 0 Z " fill="#FEFEFE" transform="translate(359.607421875,358.61181640625)"/>
<path d="M0 0 C4.09227871 0.63156427 6.43030055 1.47327716 9.04052734 4.89160156 C11.16462077 9.55920228 10.4964909 14.85912507 10.3125 19.875 C10.28994141 21.0403125 10.26738281 22.205625 10.24414062 23.40625 C10.18541297 26.27215945 10.10332875 29.13540922 10 32 C10.92683594 31.96648437 11.85367188 31.93296875 12.80859375 31.8984375 C17.51658548 32.04826343 20.21616962 34.16342195 23.453125 37.49609375 C26.50606754 41.01399593 27.85646556 43.53594868 28.3125 48.1875 C27.82585619 54.12455453 25.59903251 58.81423694 21.25 62.9375 C18.21374303 64.86435538 17.16950424 65.29927685 13.796875 65.62890625 C12.54390625 65.75136719 11.2909375 65.87382812 10 66 C10.0314209 67.09671021 10.0314209 67.09671021 10.06347656 68.21557617 C10.14680314 71.53941001 10.19871332 74.86302384 10.25 78.1875 C10.28351563 79.33798828 10.31703125 80.48847656 10.3515625 81.67382812 C10.37089844 83.34155273 10.37089844 83.34155273 10.390625 85.04296875 C10.4220459 86.57473755 10.4220459 86.57473755 10.45410156 88.13745117 C9.87369407 91.7962027 8.58321225 93.38533354 6 96 C1.88686429 98.62045741 -2.27866415 98.92317589 -7 98 C-11.52410236 95.95609367 -15.67051488 93.37962595 -19.875 90.75 C-33.22899218 82.52617944 -44.23544047 78.15588338 -59.875 77.4375 C-60.75414062 77.39431641 -61.63328125 77.35113281 -62.5390625 77.30664062 C-64.69255797 77.20130661 -66.84626064 77.10022351 -69 77 C-69 73.7 -69 70.4 -69 67 C-54.37707226 66.35487084 -42.73479498 70.98681605 -30.55859375 78.8359375 C-29.77500488 79.33544922 -28.99141602 79.83496094 -28.18408203 80.34960938 C-26.63724711 81.34452646 -25.10223692 82.35814678 -23.58154297 83.39257812 C-18.49048969 86.67976858 -14.09061668 88.25454069 -8 87 C-4.93885534 85.26205981 -2.59867621 83.19735242 -1 80 C-0.87778771 77.4682761 -0.81435555 74.96221479 -0.79467773 72.42919922 C-0.78477814 71.64862152 -0.77487854 70.86804382 -0.76467896 70.06381226 C-0.73303022 67.47746845 -0.70829324 64.89110625 -0.68359375 62.3046875 C-0.66302713 60.51392126 -0.64203074 58.72315992 -0.62062073 56.93240356 C-0.56536987 52.21421257 -0.5159739 47.49597755 -0.46777344 42.77770996 C-0.4175804 37.96504793 -0.36188288 33.15245 -0.30664062 28.33984375 C-0.19902219 18.8932839 -0.09758541 9.44666844 0 0 Z " fill="#EE7816" transform="translate(288,203)"/>
<path d="M0 0 C0.82290527 0.00202423 1.64581055 0.00404846 2.49365234 0.00613403 C3.33331543 0.00517731 4.17297852 0.00422058 5.03808594 0.00323486 C6.81689529 0.00255306 8.59570712 0.00440737 10.37451172 0.00857544 C13.10699011 0.01392371 15.83930411 0.00863048 18.57177734 0.00222778 C20.29573604 0.00288856 22.01969464 0.00416973 23.74365234 0.00613403 C24.56655762 0.0041098 25.38946289 0.00208557 26.23730469 0 C32.0037018 0.02399599 32.0037018 0.02399599 33.11865234 1.13894653 C33.22187432 2.5401999 33.25714664 3.94655923 33.26391602 5.35159302 C33.27029587 6.24599594 33.27667572 7.14039886 33.2832489 8.06190491 C33.28436172 9.03478958 33.28547455 10.00767426 33.28662109 11.01004028 C33.29161369 12.49903587 33.29161369 12.49903587 33.29670715 14.01811218 C33.30178075 16.12226903 33.30411535 18.22643396 33.30395508 20.33059692 C33.30614065 23.55916536 33.32428934 26.7873918 33.34326172 30.01589966 C33.34619566 32.05561202 33.34818045 34.09532602 33.34912109 36.13504028 C33.35630661 37.10590073 33.36349213 38.07676117 33.37089539 39.07704163 C33.36781876 39.97459671 33.36474213 40.87215179 33.36157227 41.79690552 C33.36299728 42.58886826 33.3644223 43.38083099 33.3658905 44.1967926 C33.11865234 46.13894653 33.11865234 46.13894653 31.11865234 48.13894653 C28.3335501 48.32647964 25.64965588 48.39455885 22.86474609 48.36941528 C22.048694 48.36895706 21.23264191 48.36849884 20.39186096 48.36802673 C18.66609239 48.36500397 16.94032656 48.35711695 15.21459961 48.34475708 C12.56337901 48.32649631 9.91250739 48.3242474 7.26123047 48.32449341 C5.5873993 48.31957847 3.91357052 48.31375026 2.23974609 48.30691528 C1.44185165 48.30580246 0.64395721 48.30468964 -0.17811584 48.30354309 C-5.76529865 48.25499554 -5.76529865 48.25499554 -6.88134766 47.13894653 C-6.97948752 45.701543 -7.00933046 44.25938326 -7.01074219 42.81863403 C-7.01389435 41.90098267 -7.01704651 40.9833313 -7.02029419 40.03787231 C-7.01826996 39.03997681 -7.01624573 38.0420813 -7.01416016 37.01394653 C-7.01511688 35.99671509 -7.01607361 34.97948364 -7.01705933 33.931427 C-7.01774127 31.77599018 -7.01588601 29.62055131 -7.01171875 27.46511841 C-7.00637071 24.15322282 -7.01166328 20.84146287 -7.01806641 17.52957153 C-7.01740563 15.44102957 -7.01612447 13.35248768 -7.01416016 11.26394653 C-7.01618439 10.26605103 -7.01820862 9.26815552 -7.02029419 8.24002075 C-7.01714203 7.32236938 -7.01398987 6.40471802 -7.01074219 5.45925903 C-7.00994659 4.64731079 -7.009151 3.83536255 -7.0083313 2.99880981 C-6.72342051 -1.17413008 -3.42992041 0.01427309 0 0 Z " fill="#FDFCFC" transform="translate(415.88134765625,231.86105346679688)"/>
<path d="M0 0 C1.40166664 -0.00956978 1.40166664 -0.00956978 2.83164978 -0.01933289 C3.84828201 -0.02044571 4.86491425 -0.02155853 5.91235352 -0.02270508 C6.94940933 -0.02603348 7.98646515 -0.02936188 9.0549469 -0.03279114 C11.25326085 -0.03786493 13.45158254 -0.04019932 15.64990234 -0.04003906 C19.02332177 -0.04222471 22.39641394 -0.06037347 25.76977539 -0.0793457 C27.90063364 -0.08227962 30.03149345 -0.08426443 32.16235352 -0.08520508 C33.17696152 -0.09239059 34.19156952 -0.09957611 35.23692322 -0.10697937 C36.17451981 -0.10390274 37.11211639 -0.10082611 38.078125 -0.09765625 C38.90561752 -0.09908127 39.73311005 -0.10050629 40.5856781 -0.10197449 C42.60375977 0.14526367 42.60375977 0.14526367 44.60375977 2.14526367 C44.86254883 4.8190918 44.86254883 4.8190918 44.86938477 8.17651367 C44.87325195 9.98055664 44.87325195 9.98055664 44.87719727 11.82104492 C44.86946289 13.08303711 44.86172852 14.3450293 44.85375977 15.64526367 C44.86536133 17.53825195 44.86536133 17.53825195 44.87719727 19.46948242 C44.87461914 20.67217773 44.87204102 21.87487305 44.86938477 23.11401367 C44.86712891 24.22196289 44.86487305 25.32991211 44.86254883 26.47143555 C44.60375977 29.14526367 44.60375977 29.14526367 42.60375977 31.14526367 C39.47875977 31.27026367 39.47875977 31.27026367 36.60375977 31.14526367 C36.60375977 34.11526367 36.60375977 37.08526367 36.60375977 40.14526367 C32.37090825 39.08705079 31.96749897 38.6574563 29.25219727 35.63354492 C23.64502741 30.54497979 17.45208928 31.21816633 10.22875977 31.33276367 C7.70010587 31.33403435 5.17143383 31.32791813 2.64282227 31.31323242 C1.53116699 31.32636475 0.41951172 31.33949707 -0.72583008 31.35302734 C-3.39624023 31.14526367 -3.39624023 31.14526367 -5.39624023 29.14526367 C-5.63916016 26.36376953 -5.63916016 26.36376953 -5.62670898 22.86010742 C-5.62477539 21.6077832 -5.6228418 20.35545898 -5.62084961 19.06518555 C-5.60860352 17.75098633 -5.59635742 16.43678711 -5.58374023 15.08276367 C-5.5830957 13.76469727 -5.58245117 12.44663086 -5.58178711 11.08862305 C-5.53048979 0.02550041 -5.53048979 0.02550041 0 0 Z " fill="#FEFBFC" transform="translate(114.396240234375,117.854736328125)"/>
<path d="M0 0 C3.69672628 1.68033013 6.01051058 3.46312992 8 7 C8.36446752 9.92617478 8.28266697 12.80714445 8.1875 15.75 C8.16719727 16.93916016 8.16719727 16.93916016 8.14648438 18.15234375 C8.11125223 20.10185564 8.05744821 22.05101626 8 24 C9.32 24 10.64 24 12 24 C12 23.34 12 22.68 12 22 C13.65 22.33 15.3 22.66 17 23 C17.47865511 30.23301049 17.43429087 36.02674936 13 42 C9.82221591 45.60253741 6.91067105 48.15856986 2.0625 48.875 C1.051875 48.91625 0.04125 48.9575 -1 49 C-1 50.98 -1 52.96 -1 55 C2.3 55 5.6 55 9 55 C9.495 56.98 9.495 56.98 10 59 C9 60 9 60 6.68334961 60.11352539 C5.68311768 60.10828857 4.68288574 60.10305176 3.65234375 60.09765625 C2.57275391 60.09443359 1.49316406 60.09121094 0.38085938 60.08789062 C-0.75544922 60.07951172 -1.89175781 60.07113281 -3.0625 60.0625 C-4.20267578 60.05798828 -5.34285156 60.05347656 -6.51757812 60.04882812 C-9.34510351 60.03699747 -12.1725264 60.0205141 -15 60 C-15.5625 58.0625 -15.5625 58.0625 -16 56 C-15 55 -15 55 -12.71484375 54.90234375 C-11.34005859 54.91974609 -11.34005859 54.91974609 -9.9375 54.9375 C-9.01839844 54.94652344 -8.09929687 54.95554687 -7.15234375 54.96484375 C-6.44207031 54.97644531 -5.73179688 54.98804688 -5 55 C-5 53.02 -5 51.04 -5 49 C-6.010625 48.95875 -7.02125 48.9175 -8.0625 48.875 C-12.91067105 48.15856986 -15.82221591 45.60253741 -19 42 C-23.43429087 36.02674936 -23.47865511 30.23301049 -23 23 C-20.08517222 22.19032562 -18.53886783 21.78154007 -15.6875 22.9375 C-14.8521875 23.4634375 -14.8521875 23.4634375 -14 24 C-14.04640625 22.91460937 -14.0928125 21.82921875 -14.140625 20.7109375 C-14.17816487 19.26565269 -14.21456264 17.82033789 -14.25 16.375 C-14.28351563 15.66214844 -14.31703125 14.94929687 -14.3515625 14.21484375 C-14.44719726 9.00274916 -13.44758641 6.12966286 -10 2 C-6.27420911 -0.48386059 -4.41288598 -0.3804212 0 0 Z " fill="#FDFAFA" transform="translate(86,225)"/>
<path d="M0 0 C1.04923141 0.0012236 1.04923141 0.0012236 2.11965942 0.00247192 C22.27886783 0.11006345 44.27397409 5.46566527 59.5625 19.5625 C59.9375 22.25 59.9375 22.25 59.5625 24.5625 C58.5625 25.5625 58.5625 25.5625 55.8203125 25.82421875 C52.03712638 25.52029373 50.4940384 24.56692127 47.4375 22.375 C27.22161356 8.8796034 2.78551831 6.66882022 -20.72753906 10.96484375 C-40.12498546 15.24276706 -58.46034337 27.95256609 -70.4375 43.5625 C-72.57389741 46.95588948 -74.52501618 50.43831997 -76.41796875 53.97265625 C-78.4375 56.5625 -78.4375 56.5625 -81.61328125 57.49609375 C-82.54527344 57.51800781 -83.47726563 57.53992188 -84.4375 57.5625 C-85.4375 56.5625 -85.4375 56.5625 -85.67578125 53.8203125 C-84.92328415 43.53207343 -74.39746191 34.60637465 -67.4375 27.5625 C-66.58285156 26.68335938 -65.72820312 25.80421875 -64.84765625 24.8984375 C-47.60020216 8.14376782 -23.75346335 -0.10471847 0 0 Z " fill="#985121" transform="translate(255.4375,158.4375)"/>
<path d="M0 0 C0.13921345 10.30963473 0.24572911 20.61904472 0.31087303 30.92942905 C0.34214422 35.71736996 0.38453938 40.50466634 0.45263672 45.29223633 C0.51798058 49.91532127 0.55373773 54.53778754 0.56926346 59.16129875 C0.58032296 60.92237013 0.60192042 62.68340884 0.63438034 64.44421577 C0.9093581 79.98297744 0.9093581 79.98297744 -2.91162109 84.57397461 C-6.81104086 87.63709984 -9.18007436 88.58147512 -14.22265625 88.52197266 C-20.26047051 87.38722873 -25.39221992 83.46306541 -30.5 80.1875 C-40.69675056 73.74074783 -49.44760922 69.05010365 -61.5625 67.8125 C-62.28501953 67.73064453 -63.00753906 67.64878906 -63.75195312 67.56445312 C-65.50034583 67.36761421 -67.25005349 67.18250976 -69 67 C-69 64.03 -69 61.06 -69 58 C-56.55715543 56.91801352 -46.12188623 65.4009285 -36.18945312 71.86328125 C-29.73106393 75.90026826 -25.64521249 77.97094199 -18 77 C-15.08997479 76.48959656 -15.08997479 76.48959656 -13 75 C-10.93862607 71.01227108 -10.756448 67.63726527 -10.77294922 63.19018555 C-10.77265717 62.52621262 -10.77236511 61.86223969 -10.77206421 61.17814636 C-10.7734504 58.99753457 -10.78897761 56.81727038 -10.8046875 54.63671875 C-10.80842017 53.11929003 -10.81126594 51.60185888 -10.81326294 50.08442688 C-10.82087945 46.10103641 -10.84051077 42.11779302 -10.8626709 38.13446045 C-10.88317214 34.065572 -10.89227379 29.99665965 -10.90234375 25.92773438 C-10.92375866 17.9517556 -10.95787051 9.97589613 -11 2 C-7.36576791 -0.32590854 -4.22911669 -0.16265833 0 0 Z " fill="#F69218" transform="translate(288,203)"/>
<path d="M0 0 C7.70235728 4.88138621 12.69106662 11.59652782 15.17578125 20.37890625 C16.20296526 28.00552026 16.00077748 36.01237768 11.17578125 42.37890625 C8.42578125 43.44140625 8.42578125 43.44140625 6.17578125 43.37890625 C6.07265625 44.30703125 5.96953125 45.23515625 5.86328125 46.19140625 C5.17578125 49.37890625 5.17578125 49.37890625 4.05078125 51.31640625 C0.94672294 53.07537263 -1.48742423 52.22827213 -4.82421875 51.37890625 C-6.82421875 48.37890625 -6.82421875 48.37890625 -6.63671875 45.25390625 C-3.9600497 32.48825386 -3.9600497 32.48825386 0.17578125 29.37890625 C3.48013731 29.61079089 6.19719406 29.88961266 9.17578125 31.37890625 C9.60346024 23.53812477 8.43637559 16.87623772 3.48828125 10.56640625 C-1.79241954 5.0281103 -6.67582797 3.15361594 -14.32421875 2.94140625 C-21.90901629 3.22167591 -27.0136066 4.42665073 -32.63671875 9.62890625 C-39.02501509 16.6443641 -39.2279694 23.27208595 -38.82421875 32.37890625 C-38.18806641 31.64414062 -38.18806641 31.64414062 -37.5390625 30.89453125 C-35.82421875 29.37890625 -35.82421875 29.37890625 -32.38671875 29.12890625 C-28.82421875 30.37890625 -28.82421875 30.37890625 -27.515625 32.35546875 C-26.48602135 34.67113409 -25.61016034 36.97037557 -24.82421875 39.37890625 C-24.49421875 40.36890625 -24.16421875 41.35890625 -23.82421875 42.37890625 C-23.37898907 48.6121218 -23.37898907 48.6121218 -24.94921875 51.31640625 C-27.74584347 52.90116026 -29.67353835 52.83838048 -32.82421875 52.37890625 C-35.65148822 49.74662088 -36.30206336 47.13842505 -36.82421875 43.37890625 C-37.58734375 43.35828125 -38.35046875 43.33765625 -39.13671875 43.31640625 C-41.82421875 42.37890625 -41.82421875 42.37890625 -43.46484375 39.34765625 C-45.09780101 35.20375663 -45.32396653 31.35902248 -45.26171875 26.94140625 C-45.25414551 26.19004395 -45.24657227 25.43868164 -45.23876953 24.66455078 C-45.07228392 19.08302942 -44.30198755 14.88272485 -40.82421875 10.37890625 C-40.38851562 9.76917969 -39.9528125 9.15945313 -39.50390625 8.53125 C-30.25081785 -3.37641294 -13.55177605 -6.53673904 0 0 Z " fill="#E6DEE0" transform="translate(148.82421875,351.62109375)"/>
<path d="M0 0 C5.62524983 0.56566758 10.7060642 1.58049865 16.0625 3.375 C16.81619873 3.62612549 17.56989746 3.87725098 18.34643555 4.13598633 C30.65254815 8.43176224 42.88310376 14.18937061 54 21 C52.36642136 24.57053616 50.27797032 27.06596402 47.6328125 29.92578125 C45.39072391 32.77398469 43.7515375 35.82675999 42 39 C41.50298584 38.75878418 41.00597168 38.51756836 40.49389648 38.26904297 C26.67546595 31.58470498 12.88146369 24.99173379 -2 21 C-1.3741355 13.99564408 -0.71325905 6.99600901 0 0 Z " fill="#FEA81A" transform="translate(298,78)"/>
<path d="M0 0 C2.95397701 3.63566401 5.76536352 7.35649031 8.53515625 11.1328125 C9.95490004 13.03211408 9.95490004 13.03211408 11.68359375 14.6171875 C13 16 13 16 13 18 C-25.37145674 39 -25.37145674 39 -41 39 C-41.66 32.07 -42.32 25.14 -43 18 C-39.885625 17.01 -36.77125 16.02 -33.5625 15 C-21.856914 11.17484885 -10.48307126 6.53175978 0 0 Z " fill="#FEA81A" transform="translate(339,395)"/>
<path d="M0 0 C0.17015625 0.54712646 0.3403125 1.09425293 0.515625 1.65795898 C4.47879815 14.27608042 9.04949847 26.18954805 15 38 C15.85851562 39.71896484 15.85851562 39.71896484 16.734375 41.47265625 C17.15203125 42.30667969 17.5696875 43.14070313 18 44 C17.26394531 44.44730469 16.52789062 44.89460938 15.76953125 45.35546875 C10.6053353 48.55495079 6.15162647 51.58052666 2 56 C1.34 56 0.68 56 0 56 C-21.85275071 16.07038673 -21.85275071 16.07038673 -21 2 C-18.43795456 1.66280953 -15.87545682 1.33012847 -13.3125 1 C-12.59126953 0.90460938 -11.87003906 0.80921875 -11.12695312 0.7109375 C-7.39007129 0.23316265 -3.77708469 -0.11919794 0 0 Z " fill="#FEA81A" transform="translate(99,296)"/>
<path d="M0 0 C2.86185356 1.3122036 5.04577974 2.76448587 7.375 4.875 C10.43230829 7.56912912 13.56086309 9.81908391 17 12 C16.39331855 16.59846953 14.45613727 20.2727963 12.3125 24.3125 C9.40470145 29.95168802 6.83049168 35.61209891 4.625 41.5625 C4.38692627 42.20421143 4.14885254 42.84592285 3.90356445 43.50708008 C2.40792264 47.64234363 1.21251934 51.75618229 0 56 C-6.93 55.34 -13.86 54.68 -21 54 C-20.25616338 48.04930705 -19.47293172 43.45342098 -17.625 37.9375 C-17.24831177 36.8069519 -17.24831177 36.8069519 -16.86401367 35.65356445 C-12.56823776 23.34745185 -6.81062939 11.11689624 0 0 Z " fill="#FEA81A" transform="translate(99,160)"/>
<path d="M0 0 C0.66 0 1.32 0 2 0 C23.85275071 39.92961327 23.85275071 39.92961327 23 54 C22.07058594 54.06058594 21.14117187 54.12117188 20.18359375 54.18359375 C18.94738281 54.26738281 17.71117187 54.35117188 16.4375 54.4375 C15.21933594 54.51871094 14.00117188 54.59992188 12.74609375 54.68359375 C9.12519214 54.9894259 5.58982228 55.4502074 2 56 C1.82984375 55.45287354 1.6596875 54.90574707 1.484375 54.34204102 C-2.47879815 41.72391958 -7.04949847 29.81045195 -13 18 C-13.57234375 16.85402344 -14.1446875 15.70804688 -14.734375 14.52734375 C-15.15203125 13.69332031 -15.5696875 12.85929688 -16 12 C-15.26394531 11.55269531 -14.52789062 11.10539063 -13.76953125 10.64453125 C-8.6053353 7.44504921 -4.15162647 4.41947334 0 0 Z " fill="#FEA81A" transform="translate(411,160)"/>
<path d="M0 0 C10.395 0.99 10.395 0.99 21 2 C20.25616338 7.95069295 19.47293172 12.54657902 17.625 18.0625 C17.37387451 18.81619873 17.12274902 19.56989746 16.86401367 20.34643555 C12.56823776 32.65254815 6.81062939 44.88310376 0 56 C-3.14290089 54.59304437 -5.4100843 52.88972435 -7.9375 50.5625 C-10.80671864 47.98824776 -13.57665878 45.81865002 -17 44 C-16.39130048 39.34523899 -14.40875049 35.59508129 -12.25 31.5 C-7.00295885 21.27325299 -3.30973738 11.03245794 0 0 Z " fill="#FEA919" transform="translate(413,296)"/>
<path d="M0 0 C0.06058594 0.92941406 0.12117188 1.85882813 0.18359375 2.81640625 C0.26738281 4.05261719 0.35117188 5.28882812 0.4375 6.5625 C0.51871094 7.78066406 0.59992188 8.99882813 0.68359375 10.25390625 C0.9894259 13.87480786 1.4502074 17.41017772 2 21 C1.45287354 21.17015625 0.90574707 21.3403125 0.34204102 21.515625 C-12.27608042 25.47879815 -24.18954805 30.04949847 -36 36 C-37.14597656 36.57234375 -38.29195312 37.1446875 -39.47265625 37.734375 C-40.30667969 38.15203125 -41.14070312 38.5696875 -42 39 C-42.44730469 38.26394531 -42.89460937 37.52789062 -43.35546875 36.76953125 C-46.55495079 31.6053353 -49.58052666 27.15162647 -54 23 C-54 22.34 -54 21.68 -54 21 C-41.28279531 14.10984257 -28.76828493 7.51030024 -15 3 C-14.00226563 2.66355469 -13.00453125 2.32710938 -11.9765625 1.98046875 C-7.8009166 0.63960885 -4.41544072 -0.13919078 0 0 Z " fill="#FEA81A" transform="translate(214,78)"/>
<path d="M0 0 C0.49701416 0.24121582 0.99402832 0.48243164 1.50610352 0.73095703 C15.45980028 7.48072685 29.11653983 13.53496195 44 18 C43.34 24.93 42.68 31.86 42 39 C36.04930705 38.25616338 31.45342098 37.47293172 25.9375 35.625 C25.18380127 35.37387451 24.43010254 35.12274902 23.65356445 34.86401367 C11.34745185 30.56823776 -0.88310376 24.81062939 -12 18 C-10.36642136 14.42946384 -8.27797032 11.93403598 -5.6328125 9.07421875 C-3.39072391 6.22601531 -1.7515375 3.17324001 0 0 Z " fill="#FEA81A" transform="translate(172,395)"/>
<path d="M0 0 C5.20241463 0.06621255 8.7267312 3.4995083 12.625 6.5625 C14.04616961 7.65846739 15.46804805 8.75351622 16.890625 9.84765625 C17.58607422 10.38535645 18.28152344 10.92305664 18.99804688 11.47705078 C22.57009913 14.19442419 26.26512449 16.7354936 29.9609375 19.28125 C32.0740064 21.06238088 32.98476215 22.45632715 34 25 C29.9735644 29.32821972 25.55032836 32.59724586 20.6875 35.9375 C19.2322282 36.94539602 17.77779805 37.95450836 16.32421875 38.96484375 C15.6079834 39.45839355 14.89174805 39.95194336 14.15380859 40.46044922 C11.31720727 42.48806291 8.61743745 44.67639405 5.93286133 46.90063477 C3.49841971 48.28528686 1.75570053 48.19936119 -1 48 C-2.15710365 45.68579271 -2.13253337 44.34114904 -2.14526367 41.765625 C-2.15164352 40.89131836 -2.15802338 40.01701172 -2.16459656 39.11621094 C-2.16570938 38.17036133 -2.1668222 37.22451172 -2.16796875 36.25 C-2.17129715 35.28094727 -2.17462555 34.31189453 -2.17805481 33.31347656 C-2.1831227 31.26237463 -2.18546318 29.21126444 -2.18530273 27.16015625 C-2.18749104 24.01288371 -2.20565324 20.86596055 -2.22460938 17.71875 C-2.22754289 15.72916787 -2.22952797 13.73958407 -2.23046875 11.75 C-2.23765427 10.80415039 -2.24483978 9.85830078 -2.25224304 8.88378906 C-2.24916641 8.00948242 -2.24608978 7.13517578 -2.24291992 6.234375 C-2.24505745 5.07760254 -2.24505745 5.07760254 -2.24723816 3.89746094 C-2 2 -2 2 0 0 Z " fill="#FEFCFC" transform="translate(244,59)"/>
<path d="M0 0 C1.39671181 -0.01429802 1.39671181 -0.01429802 2.82164001 -0.02888489 C4.33414085 -0.02751778 4.33414085 -0.02751778 5.87719727 -0.02612305 C6.91046646 -0.03040817 7.94373566 -0.0346933 9.00831604 -0.03910828 C11.19645453 -0.04485863 13.38461214 -0.04534667 15.57275391 -0.04101562 C18.9265191 -0.03785788 22.27940076 -0.06129889 25.63305664 -0.08666992 C27.7561024 -0.088943 29.87915054 -0.08964637 32.00219727 -0.08862305 C33.00850693 -0.09783279 34.01481659 -0.10704254 35.05162048 -0.11653137 C35.98591385 -0.11030258 36.92020721 -0.10407379 37.8828125 -0.09765625 C38.70506821 -0.09828568 39.52732391 -0.0989151 40.37449646 -0.0995636 C43.03567442 0.36762889 43.91815221 1.11508604 45.50610352 3.2746582 C45.87841797 6.50512695 45.87841797 6.50512695 45.86938477 10.4621582 C45.87013252 11.51052856 45.87013252 11.51052856 45.87089539 12.58007812 C45.86855743 14.05609992 45.85884516 15.53212589 45.84228516 17.00805664 C45.81868815 19.26655753 45.82172622 21.52387782 45.82836914 23.7824707 C45.7853312 34.85581668 45.7853312 34.85581668 43.50610352 38.2746582 C41.41882324 38.64888 41.41882324 38.64888 38.81274414 38.64697266 C37.83833374 38.65320145 36.86392334 38.65943024 35.85998535 38.66584778 C34.80476685 38.65663803 33.74954834 38.64742828 32.66235352 38.63793945 C31.58232056 38.63843796 30.5022876 38.63893646 29.38952637 38.63945007 C27.10300866 38.63710657 24.81648851 38.62736189 22.5300293 38.61083984 C19.02051848 38.58725508 15.51176711 38.59027598 12.00219727 38.59692383 C9.7847448 38.59134716 7.56729554 38.58423735 5.34985352 38.57543945 C4.29463501 38.57635086 3.2394165 38.57726227 2.15222168 38.57820129 C1.17781128 38.56866928 0.20340088 38.55913727 -0.80053711 38.54931641 C-2.09054626 38.54240532 -2.09054626 38.54240532 -3.40661621 38.53535461 C-5.49389648 38.2746582 -5.49389648 38.2746582 -7.49389648 36.2746582 C-7.66885254 33.76544975 -7.72559217 31.36840879 -7.68920898 28.8605957 C-7.68637909 28.13095612 -7.68354919 27.40131653 -7.68063354 26.64956665 C-7.6694265 24.31609793 -7.64432159 21.98301117 -7.61889648 19.6496582 C-7.60886733 18.06893457 -7.59974137 16.48820494 -7.59155273 14.9074707 C-7.56948554 11.02971906 -7.53495263 7.15225342 -7.49389648 3.2746582 C-7.16389648 3.2746582 -6.83389648 3.2746582 -6.49389648 3.2746582 C-6.49389648 13.5046582 -6.49389648 23.7346582 -6.49389648 34.2746582 C-0.10337348 34.15504268 6.28694988 34.03252093 12.67724609 33.90234375 C14.85299305 33.85892313 17.02877566 33.8172535 19.20458984 33.77734375 C22.32473519 33.71981318 25.44469984 33.65606998 28.56469727 33.59106445 C29.54385605 33.57435196 30.52301483 33.55763947 31.53184509 33.54042053 C32.4327034 33.52047531 33.33356171 33.50053009 34.26171875 33.47998047 C35.45751808 33.45666405 35.45751808 33.45666405 36.67747498 33.43287659 C38.52461734 33.47065155 38.52461734 33.47065155 39.50610352 32.2746582 C39.6643561 30.27683694 39.75729523 28.27376986 39.82250977 26.27075195 C39.88535156 24.44833984 39.88535156 24.44833984 39.94946289 22.58911133 C39.9887793 21.3097168 40.0280957 20.03032227 40.06860352 18.7121582 C40.13337891 16.78726562 40.13337891 16.78726562 40.19946289 14.82348633 C40.30595151 11.64065967 40.40796314 8.45775147 40.50610352 5.2746582 C39.56508789 6.02231445 38.62407227 6.7699707 37.65454102 7.5402832 C36.39682307 8.53519441 35.13900525 9.52997937 33.88110352 10.5246582 C33.26364258 11.01579102 32.64618164 11.50692383 32.01000977 12.01293945 C30.18828828 13.45114062 28.35085253 14.8661606 26.50610352 16.2746582 C25.46711914 17.07387695 24.42813477 17.8730957 23.35766602 18.6965332 C20.50610352 20.2746582 20.50610352 20.2746582 18.05688477 20.34887695 C14.47125268 18.83884813 11.6613741 16.54714606 8.69360352 14.0871582 C7.45583523 13.08652334 6.21755651 12.08651953 4.97875977 11.0871582 C4.08761475 10.36206055 4.08761475 10.36206055 3.1784668 9.62231445 C0.02352815 7.07994054 -3.2374279 4.68444496 -6.49389648 2.2746582 C-4.04082014 -0.17841814 -3.36999011 0.01890154 0 0 Z " fill="#E8DFE1" transform="translate(359.493896484375,358.725341796875)"/>
<path d="M0 0 C8.58 0 17.16 0 26 0 C27.46280547 6.5826246 28.71549369 12.97896673 29.6875 19.625 C29.82994141 20.52734375 29.97238281 21.4296875 30.11914062 22.359375 C30.86653453 27.46098911 31.24996701 31.91505567 30 37 C26.89947224 40.4696382 25.05212899 41.83387437 20.4375 42.5625 C16.40244275 41.90221791 14.79479947 40.9545023 12 38 C10.24780433 34.40434846 9.84092691 31.5933964 9.8125 27.625 C9.54821385 23.52159851 9.54821385 23.52159851 7.453125 20.1171875 C6.19033942 19.0370362 4.92469505 17.96021835 3.65625 16.88671875 C-0.24936931 12.43762883 0 5.64772828 0 0 Z " fill="#F49018" transform="translate(193,280)"/>
<path d="M0 0 C0.226875 0.61875 0.45375 1.2375 0.6875 1.875 C2.47172093 4.76373864 3.7284526 5.12402244 7 6 C9.81643072 6.23190584 12.54494049 6.37131943 15.36328125 6.4140625 C16.15526413 6.43342865 16.94724701 6.4527948 17.76322937 6.4727478 C20.27954519 6.53227232 22.79590744 6.57881958 25.3125 6.625 C27.0241079 6.66320481 28.73569709 6.70225799 30.44726562 6.7421875 C34.6314101 6.83954035 38.81536815 6.91932217 43 7 C43 13.6 43 20.2 43 27 C37.82129077 27.0919751 32.64542887 27.17156441 27.46655273 27.21972656 C25.70603825 27.23980786 23.94559018 27.26707879 22.18530273 27.30175781 C19.65071198 27.35043112 17.11700505 27.37300305 14.58203125 27.390625 C13.79850784 27.41127014 13.01498444 27.43191528 12.2077179 27.45318604 C8.41932138 27.45473193 6.2509922 27.16030862 3.02612305 25.10058594 C0.05423306 22.01947479 -0.1227703 20.3798696 -0.09765625 16.2109375 C-0.09443359 15.26992188 -0.09121094 14.32890625 -0.08789062 13.359375 C-0.07951172 12.37453125 -0.07113281 11.3896875 -0.0625 10.375 C-0.05798828 9.38242187 -0.05347656 8.38984375 -0.04882812 7.3671875 C-0.03702145 4.9113984 -0.020554 2.45572896 0 0 Z " fill="#D10128" transform="translate(176,253)"/>
<path d="M0 0 C1.94043742 1.94043742 1.16382173 5.59873735 1.16796875 8.24609375 C1.17296135 9.33556053 1.17296135 9.33556053 1.17805481 10.44703674 C1.18312675 11.98625046 1.18546305 13.5254752 1.18530273 15.06469727 C1.18748766 17.42417471 1.20563565 19.78318361 1.22460938 22.14257812 C1.22754352 23.63541506 1.22952817 25.12825423 1.23046875 26.62109375 C1.23765427 27.32946884 1.24483978 28.03784393 1.25224304 28.76768494 C1.22882337 33.77117663 1.22882337 33.77117663 -1 36 C-5.86504508 35.72199742 -9.12519319 33.97894794 -13.25 31.5 C-18.34806481 28.63270352 -22.23435793 27.21575812 -28.07421875 27.16796875 C-30 27 -30 27 -32 25 C-32.17163731 22.43707683 -32.23264558 19.99654143 -32.1875 17.4375 C-32.18685547 16.73947266 -32.18621094 16.04144531 -32.18554688 15.32226562 C-32.14031158 10.14031158 -32.14031158 10.14031158 -31 9 C-29.68 9 -28.36 9 -27 9 C-20.48670487 8.49026386 -15.41470536 5.30741434 -9.890625 2.0625 C-8.83488281 1.45535156 -8.83488281 1.45535156 -7.7578125 0.8359375 C-7.1302002 0.46001465 -6.50258789 0.0840918 -5.85595703 -0.30322266 C-3.51144747 -1.18341606 -2.31638971 -0.85835761 0 0 Z " fill="#FEFCFC" transform="translate(383,116)"/>
<path d="M0 0 C1.32 0 2.64 0 4 0 C4.01417969 0.70125 4.02835937 1.4025 4.04296875 2.125 C4.37686213 8.76677108 5.35633226 14.00586677 10 19 C14.37907816 21.80003949 18.97171438 21.63548633 24 21 C27.69549841 19.25303711 29.46647088 17.7542998 31.8125 14.4375 C33.45579881 9.68058238 33.74183772 5.00300694 34 0 C36.475 0.495 36.475 0.495 39 1 C39.47865511 8.23301049 39.43429087 14.02674936 35 20 C31.82221591 23.60253741 28.91067105 26.15856986 24.0625 26.875 C22.5465625 26.936875 22.5465625 26.936875 21 27 C21 28.98 21 30.96 21 33 C24.3 33 27.6 33 31 33 C31.495 34.98 31.495 34.98 32 37 C31 38 31 38 28.68334961 38.11352539 C27.68311768 38.10828857 26.68288574 38.10305176 25.65234375 38.09765625 C24.57275391 38.09443359 23.49316406 38.09121094 22.38085938 38.08789062 C21.24455078 38.07951172 20.10824219 38.07113281 18.9375 38.0625 C17.79732422 38.05798828 16.65714844 38.05347656 15.48242188 38.04882812 C12.65489649 38.03699747 9.8274736 38.0205141 7 38 C6.4375 36.0625 6.4375 36.0625 6 34 C7 33 7 33 9.28515625 32.90234375 C10.65994141 32.91974609 10.65994141 32.91974609 12.0625 32.9375 C12.98160156 32.94652344 13.90070313 32.95554687 14.84765625 32.96484375 C15.55792969 32.97644531 16.26820312 32.98804688 17 33 C17 31.02 17 29.04 17 27 C15.989375 26.95875 14.97875 26.9175 13.9375 26.875 C9.08932895 26.15856986 6.17778409 23.60253741 3 20 C-1.34759677 14.14353141 -1.76451174 8.13126521 -1 1 C-0.67 0.67 -0.34 0.34 0 0 Z " fill="#FDF2F4" transform="translate(64,247)"/>
<path d="M0 0 C6.29203018 0 7.36746867 0.25454914 12 4 C15.65944126 7.76765055 17.78848129 10.84250911 18.3125 16.1875 C17.82585619 22.12455453 15.59903251 26.81423694 11.25 30.9375 C8 33 8 33 0 34 C0 22.78 0 11.56 0 0 Z " fill="#E43B4C" transform="translate(298,235)"/>
<path d="M0 0 C5.94 0 11.88 0 18 0 C21.65870307 22.8668942 21.65870307 22.8668942 18.3125 29.1875 C15.7689728 31.18107537 14.13271669 31.48567338 11 32 C10.93683594 31.35933594 10.87367188 30.71867187 10.80859375 30.05859375 C10.09591839 25.02485514 9.44833883 21.9280279 5.5 18.5625 C0.88678767 14.53433123 0.44268939 9.89951365 0 4 C0 2.68 0 1.36 0 0 Z " fill="#FEA819" transform="translate(193,280)"/>
<path d="M0 0 C2.70552388 2.19823815 4.44778333 3.89556667 6 7 C6.3768901 11.99379386 6.19468322 15.05989069 3 19 C-0.02926599 21.49072981 -2.11904534 22.85317422 -6 23.5 C-9.82533091 22.86244485 -11.98324847 21.39968871 -15 19 C-17.8288298 14.7567553 -17.65268001 10.98265471 -17 6 C-12.92808609 -0.98042384 -7.44330557 -2.09633205 0 0 Z " fill="#E63D53" transform="translate(262,418)"/>
<path d="M0 0 C13.2 0 26.4 0 40 0 C36.59302469 3.40697531 33.26027238 6.67199965 29.625 9.8125 C28.73039062 10.60269531 27.83578125 11.39289063 26.9140625 12.20703125 C23.1781694 14.50565716 21.32426811 14.71289453 17 14 C14.31536165 12.52586199 12.06872265 10.677486 9.75 8.6875 C9.13898438 8.18798828 8.52796875 7.68847656 7.8984375 7.17382812 C5.11895979 4.88288307 2.55297559 2.55297559 0 0 Z " fill="#E5E6E7" transform="translate(358,360)"/>
<path d="M0 0 C0 8.58 0 17.16 0 26 C-9 26 -9 26 -11.53125 25.08984375 C-14.01502023 21.55575579 -13.57532713 17.76512609 -13.5 13.5625 C-13.51546875 12.70333984 -13.5309375 11.84417969 -13.546875 10.95898438 C-13.52364783 7.21650716 -13.39224286 4.69372739 -11.53125 1.40234375 C-9 0 -9 0 0 0 Z " fill="#FEA719" transform="translate(176,239)"/>
<path d="M0 0 C9.9 0 19.8 0 30 0 C30 2.97 30 5.94 30 9 C20.1 9 10.2 9 0 9 C0 6.03 0 3.06 0 0 Z " fill="#D1D3D4" transform="translate(414,237)"/>
<path d="M0 0 C1.093125 0.226875 2.18625 0.45375 3.3125 0.6875 C5.38044314 4.82338628 5.51210201 7.2318354 4.3125 11.6875 C1.15823003 19.84176997 1.15823003 19.84176997 -1.6875 22.6875 C-5.1875 22.5 -5.1875 22.5 -8.6875 21.6875 C-10.6875 18.6875 -10.6875 18.6875 -10.5 15.5625 C-7.11054593 -0.60258864 -7.11054593 -0.60258864 0 0 Z " fill="#FDF8F8" transform="translate(152.6875,381.3125)"/>
<path d="M0 0 C0.64757625 1.43671568 1.29299453 2.87440416 1.9375 4.3125 C2.29714844 5.11300781 2.65679687 5.91351563 3.02734375 6.73828125 C4.86983553 11.02262961 5.333355 14.33303004 5 19 C3.875 20.9375 3.875 20.9375 2 22 C-1 22.4375 -1 22.4375 -4 22 C-8.08464162 18.36920744 -9.72985138 12.00681835 -10.4375 6.75 C-10 4 -10 4 -8.375 1.625 C-5.3962104 -0.4131192 -3.53677664 -0.32152515 0 0 Z " fill="#FEFAFA" transform="translate(120,382)"/>
<path d="M0 0 C0.83050873 0.00444122 1.66101746 0.00888245 2.51669312 0.01345825 C3.92792953 0.01368484 3.92792953 0.01368484 5.36767578 0.01391602 C6.38542084 0.02423859 7.40316589 0.03456116 8.45175171 0.04519653 C9.49213593 0.04802643 10.53252014 0.05085632 11.60443115 0.05377197 C14.93646615 0.064992 18.26823507 0.09009989 21.60018921 0.11550903 C23.85539367 0.12553648 26.11060233 0.13466273 28.36581421 0.14285278 C33.90236375 0.16493725 39.43875748 0.19843265 44.97518921 0.24050903 C44.97518921 3.24050903 44.97518921 3.24050903 43.49398804 4.81863403 C42.47341309 5.64621216 42.47341309 5.64621216 41.43222046 6.49050903 C40.68778687 7.09894653 39.94335327 7.70738403 39.17636108 8.33425903 C37.99396851 9.27785278 37.99396851 9.27785278 36.78768921 10.24050903 C36.01876343 10.86957153 35.24983765 11.49863403 34.45761108 12.14675903 C24.47813896 20.23312957 24.47813896 20.23312957 20.58847046 20.25222778 C16.92978035 18.83578423 14.14984225 16.52906303 11.16268921 14.05300903 C9.92492093 13.05237417 8.68664221 12.05237036 7.44784546 11.05300903 C6.55670044 10.32791138 6.55670044 10.32791138 5.64755249 9.58816528 C2.49261385 7.04579137 -0.76834221 4.65029579 -4.02481079 2.24050903 C-2.02481079 0.24050903 -2.02481079 0.24050903 0 0 Z M0.97518921 1.24050903 C4.54953027 4.81485009 7.90153412 7.96075057 11.85018921 11.05300903 C12.83761108 11.84320435 13.82503296 12.63339966 14.84237671 13.44754028 C18.75194393 15.68506067 20.53252411 16.04999785 24.97518921 15.24050903 C28.06805047 13.40472013 30.70944675 11.16494549 33.41268921 8.80300903 C34.14423218 8.19134888 34.87577515 7.57968872 35.62948608 6.94949341 C38.35393863 4.65229482 38.35393863 4.65229482 40.97518921 2.24050903 C40.97518921 1.91050903 40.97518921 1.58050903 40.97518921 1.24050903 C27.77518921 1.24050903 14.57518921 1.24050903 0.97518921 1.24050903 Z " fill="#D8D2D4" transform="translate(357.0248107910156,358.7594909667969)"/>
<path d="M0 0 C2.57161458 0.03255208 5.14322917 0.06510417 7.71484375 0.09765625 C7.71484375 6.03765625 7.71484375 11.97765625 7.71484375 18.09765625 C4.74484375 18.09765625 1.77484375 18.09765625 -1.28515625 18.09765625 C-3.28515625 16.09765625 -3.28515625 16.09765625 -3.515625 12.65625 C-3.51163536 11.28248321 -3.49688802 9.90871511 -3.47265625 8.53515625 C-3.47201172 7.83712891 -3.47136719 7.13910156 -3.47070312 6.41992188 C-3.41593545 0.14598015 -3.41593545 0.14598015 0 0 Z " fill="#D1D0D1" transform="translate(354.28515625,124.90234375)"/>
<path d="M0 0 C4.455 0.99 4.455 0.99 9 2 C7.73046875 3.98567708 6.4609375 5.97135417 5.19140625 7.95703125 C2.11233389 13.2368832 2.43048838 19.07258299 3 25 C4.03601253 28.00914548 5.32414126 30.2576857 7 33 C7.33 33.66 7.66 34.32 8 35 C4.62902617 36.49821059 2.79557881 37 -1 37 C-3.56771603 33.69865082 -4 32.27125508 -4 28 C-3.02546875 27.31744141 -3.02546875 27.31744141 -2.03125 26.62109375 C0.28697987 25.13144983 0.28697987 25.13144983 0.53125 22.22265625 C0.5209375 21.17980469 0.510625 20.13695312 0.5 19.0625 C0.51546875 17.50208984 0.51546875 17.50208984 0.53125 15.91015625 C-0.11315827 12.38012563 -1.39467956 11.35670139 -4 9 C-3.90346814 5.13872576 -2.46392937 2.89243882 0 0 Z " fill="#F1E6E7" transform="translate(233,410)"/>
<path d="M0 0 C1.32 0 2.64 0 4 0 C3.48251843 6.46851958 1.78171393 10.54554654 -3.125 14.875 C-7.44348642 16.56484251 -11.4267052 16.65960983 -16 16 C-20.41884299 13.83074981 -23.05081082 11.54810808 -25 7 C-25.1875 3.6875 -25.1875 3.6875 -25 1 C-24.01 1 -23.02 1 -22 1 C-20.68359375 2.71484375 -20.68359375 2.71484375 -19.4375 4.9375 C-17.79661289 8.06087402 -17.79661289 8.06087402 -15 10 C-11.36223657 10.27454818 -8.67022818 10.2589518 -5.25 8.9375 C-2.16822986 6.28375349 -1.36549504 3.80901248 0 0 Z " fill="#E74359" transform="translate(94,253)"/>
<path d="M0 0 C4.18669353 0.61704712 6.37617864 3.19215633 9.2109375 6.10546875 C9.76910156 6.63591797 10.32726562 7.16636719 10.90234375 7.71289062 C12.484375 9.3046875 12.484375 9.3046875 14.8359375 12.41796875 C14.6875 15.3125 14.6875 15.3125 13.8359375 17.41796875 C11.5859375 18.11328125 11.5859375 18.11328125 8.8359375 18.41796875 C6.7734375 17.16015625 6.7734375 17.16015625 4.8359375 15.29296875 C4.15660156 14.64328125 3.47726562 13.99359375 2.77734375 13.32421875 C2.13667969 12.69515625 1.49601562 12.06609375 0.8359375 11.41796875 C0.28808594 10.95390625 -0.25976562 10.48984375 -0.82421875 10.01171875 C-2.2265625 8.79296875 -2.2265625 8.79296875 -4.1640625 6.41796875 C-3.99735657 2.75043829 -3.76691368 0.7275447 0 0 Z " fill="#EF8C17" transform="translate(321.1640625,270.58203125)"/>
<path d="M0 0 C2.265625 0.44921875 2.265625 0.44921875 4.265625 2.44921875 C4.16405625 7.34991106 1.334601 10.01640148 -1.984375 13.26171875 C-2.46261719 13.76380859 -2.94085938 14.26589844 -3.43359375 14.78320312 C-5.72360288 17.06390328 -7.23984797 18.36797502 -10.46875 18.8984375 C-12.734375 18.44921875 -12.734375 18.44921875 -14.734375 16.44921875 C-14.63280625 11.54852644 -11.803351 8.88203602 -8.484375 5.63671875 C-8.00613281 5.13462891 -7.52789062 4.63253906 -7.03515625 4.11523438 C-4.74514712 1.83453422 -3.22890203 0.53046248 0 0 Z " fill="#EF8C17" transform="translate(331.734375,214.55078125)"/>
<path d="M0 0 C0.79664063 -0.00128906 1.59328125 -0.00257813 2.4140625 -0.00390625 C3.24679687 -0.00003906 4.07953125 0.00382813 4.9375 0.0078125 C6.18660156 0.00201172 6.18660156 0.00201172 7.4609375 -0.00390625 C8.25757813 -0.00261719 9.05421875 -0.00132812 9.875 0 C10.60589844 0.00112793 11.33679688 0.00225586 12.08984375 0.00341797 C13.9375 0.1328125 13.9375 0.1328125 15.9375 1.1328125 C16.0625 3.5078125 16.0625 3.5078125 15.9375 6.1328125 C13.57181778 8.49849472 13.08517774 8.38852954 9.875 8.3984375 C8.68003906 8.40230469 8.68003906 8.40230469 7.4609375 8.40625 C6.62820313 8.39851563 5.79546875 8.39078125 4.9375 8.3828125 C4.10476563 8.39054687 3.27203125 8.39828125 2.4140625 8.40625 C1.61742187 8.40367187 0.82078125 8.40109375 0 8.3984375 C-0.73089844 8.39618164 -1.46179688 8.39392578 -2.21484375 8.39160156 C-4.0625 8.1328125 -4.0625 8.1328125 -6.0625 6.1328125 C-6.1875 3.5078125 -6.1875 3.5078125 -6.0625 1.1328125 C-3.79176921 -0.0025529 -2.51966721 0.00388838 0 0 Z " fill="#F59018" transform="translate(333.0625,247.8671875)"/>
<path d="M0 0 C3.9151054 3.71433076 5.77629553 5.71821441 6.3125 11.1875 C5.82348945 17.15342874 3.59711151 21.83526087 -0.8125 25.9375 C-4.34074532 28.22048227 -6.84060954 28.75043657 -11 29 C-11.5 26.8125 -11.5 26.8125 -11 24 C-9.10310456 22.562958 -7.16172442 21.48685399 -5.04296875 20.40625 C-2.35186198 18.55386293 -1.33298528 16.98672014 0 14 C0.36118491 10.41771784 0.36118491 10.41771784 0.1875 6.6875 C0.16042969 5.43324219 0.13335937 4.17898437 0.10546875 2.88671875 C0.05326172 1.45779297 0.05326172 1.45779297 0 0 Z " fill="#D00529" transform="translate(310,240)"/>
<path d="M0 0 C1.32 0 2.64 0 4 0 C4 1.98 4 3.96 4 6 C7.3 6 10.6 6 14 6 C14.33 7.32 14.66 8.64 15 10 C14 11 14 11 11.68334961 11.11352539 C10.68311768 11.10828857 9.68288574 11.10305176 8.65234375 11.09765625 C7.57275391 11.09443359 6.49316406 11.09121094 5.38085938 11.08789062 C4.24455078 11.07951172 3.10824219 11.07113281 1.9375 11.0625 C0.79732422 11.05798828 -0.34285156 11.05347656 -1.51757812 11.04882812 C-4.34510351 11.03699747 -7.1725264 11.0205141 -10 11 C-10.5625 9.0625 -10.5625 9.0625 -11 7 C-10 6 -10 6 -7.71484375 5.90234375 C-6.34005859 5.91974609 -6.34005859 5.91974609 -4.9375 5.9375 C-4.01839844 5.94652344 -3.09929687 5.95554687 -2.15234375 5.96484375 C-1.44207031 5.97644531 -0.73179688 5.98804688 0 6 C0 4.02 0 2.04 0 0 Z " fill="#FCECEE" transform="translate(81,274)"/>
<path d="M0 0 C2.97 0 5.94 0 9 0 C9 8.58 9 17.16 9 26 C0 26 0 26 -2.5625 24 C-3.2740625 23.01 -3.2740625 23.01 -4 22 C-1.03 22 1.94 22 5 22 C5 15.07 5 8.14 5 1 C3.35 1 1.7 1 0 1 C0 0.67 0 0.34 0 0 Z " fill="#F18E18" transform="translate(167,239)"/>
<path d="M0 0 C9.57 0 19.14 0 29 0 C29 1.32 29 2.64 29 4 C19.76 4 10.52 4 1 4 C0.67 2.68 0.34 1.36 0 0 Z " fill="#D4D6D7" transform="translate(414,269)"/>
<path d="M0 0 C9.57 0 19.14 0 29 0 C29 1.32 29 2.64 29 4 C19.76 4 10.52 4 1 4 C0.67 2.68 0.34 1.36 0 0 Z " fill="#D4D6D6" transform="translate(414,252)"/>
<path d="M0 0 C1.87052878 2.38653672 2.96960259 3.99688561 3.0625 7.0625 C1.42625196 10.04624642 -1.13205973 11.29143984 -4 13 C-6 9 -8 5 -10 1 C-3.16912402 -1.63920208 -3.16912402 -1.63920208 0 0 Z " fill="#F0E5E6" transform="translate(281,411)"/>
<path d="M0 0 C4.29 0 8.58 0 13 0 C12.25 6.75 12.25 6.75 10 9 C7.31160615 9.26991906 4.70858064 9.08737357 2 9 C0 3.375 0 3.375 0 0 Z " fill="#F0E5E6" transform="translate(250,450)"/>
<path d="M0 0 C1.91015625 0.23046875 1.91015625 0.23046875 3.91015625 2.23046875 C4.31063069 4.55322052 4.64986665 6.88786232 4.91015625 9.23046875 C0.62015625 9.23046875 -3.66984375 9.23046875 -8.08984375 9.23046875 C-7.07994076 0.14134183 -7.07994076 0.14134183 0 0 Z " fill="#F0E5E7" transform="translate(258.08984375,398.76953125)"/>
<path d="M0 0 C2.88437779 1.29299694 4.87219421 2.65941363 7 5 C5.25 10.75 5.25 10.75 3 13 C-3.46153846 12.53846154 -3.46153846 12.53846154 -6 10 C-5.38125 9.278125 -4.7625 8.55625 -4.125 7.8125 C-2.16333647 5.21618062 -1.04684 3.05328334 0 0 Z " fill="#F0E6E8" transform="translate(277,434)"/>
<path d="M0 0 C9.9 0 19.8 0 30 0 C30 0.99 30 1.98 30 3 C20.1 3 10.2 3 0 3 C0 2.01 0 1.02 0 0 Z " fill="#D1D3D4" transform="translate(414,261)"/>
<path d="M0 0 C3.46228308 0.4467462 6.53364208 1.50441185 9.75 2.8125 C10.52859375 3.12832031 11.3071875 3.44414062 12.109375 3.76953125 C14 5 14 5 14.765625 7.13671875 C14.84296875 7.75160156 14.9203125 8.36648437 15 9 C10.55829268 10.35606055 8.2943828 9.59120114 4.1875 7.5625 C3.21167969 7.08941406 2.23585938 6.61632812 1.23046875 6.12890625 C0.49441406 5.75636719 -0.24164063 5.38382813 -1 5 C-0.67 3.35 -0.34 1.7 0 0 Z " fill="#FDF2F4" transform="translate(390,141)"/>
<path d="M0 0 C-0.203125 1.859375 -0.203125 1.859375 -1 4 C-3.109375 5.265625 -3.109375 5.265625 -5.75 6.25 C-7.04164063 6.75273438 -7.04164063 6.75273438 -8.359375 7.265625 C-11.03880217 8.01079114 -13.23455607 8.13926696 -16 8 C-15.796875 5.6484375 -15.796875 5.6484375 -15 3 C-12.890625 1.6015625 -12.890625 1.6015625 -10.25 0.625 C-9.38890625 0.28726563 -8.5278125 -0.05046875 -7.640625 -0.3984375 C-4.71862447 -1.06410034 -2.86284447 -0.79294613 0 0 Z " fill="#FDF6F7" transform="translate(405,119)"/>
<path d="M0 0 C5.28 0 10.56 0 16 0 C16.33 1.32 16.66 2.64 17 4 C16 5 16 5 12.62109375 5.09765625 C11.22652923 5.09098369 9.83198257 5.07902532 8.4375 5.0625 C7.72658203 5.05798828 7.01566406 5.05347656 6.28320312 5.04882812 C4.52209987 5.03700864 2.76103964 5.01907263 1 5 C0.67 3.35 0.34 1.7 0 0 Z " fill="#FEFAFA" transform="translate(389,132)"/>
<path d="M0 0 C3.63 0.33 7.26 0.66 11 1 C11 2.32 11 3.64 11 5 C7.7 5.33 4.4 5.66 1 6 C0.67 7.32 0.34 8.64 0 10 C0 6.7 0 3.4 0 0 Z " fill="#E6CBD0" transform="translate(68,248)"/>
<path d="M0 0 C2.625 0.375 2.625 0.375 5 1 C5.625 3.375 5.625 3.375 6 6 C5.34 6.66 4.68 7.32 4 8 C1.375 7.625 1.375 7.625 -1 7 C-1.625 4.625 -1.625 4.625 -2 2 C-1.34 1.34 -0.68 0.68 0 0 Z " fill="#985020" transform="translate(321,187)"/>
<path d="M0 0 C1.32 0 2.64 0 4 0 C4 1.98 4 3.96 4 6 C7.3 6 10.6 6 14 6 C14 6.33 14 6.66 14 7 C6.08 7 -1.84 7 -10 7 C-10 6.67 -10 6.34 -10 6 C-6.7 6 -3.4 6 0 6 C0 4.02 0 2.04 0 0 Z " fill="#EECACF" transform="translate(81,274)"/>
<path d="M0 0 C2.5 0.125 2.5 0.125 3.5 1.125 C3.625 3.625 3.625 3.625 3.5 6.125 C2.5 7.125 2.5 7.125 0.0625 7.3125 C-2.5 7.125 -2.5 7.125 -4.5 5.125 C-3.7519084 0.18759542 -3.7519084 0.18759542 0 0 Z " fill="#D4D5D6" transform="translate(147.5,128.875)"/>
<path d="M0 0 C2.5625 0.1875 2.5625 0.1875 4.5625 2.1875 C4.02678571 5.72321429 4.02678571 5.72321429 2.5625 7.1875 C0.0625 7.3125 0.0625 7.3125 -2.4375 7.1875 C-3.4375 6.1875 -3.4375 6.1875 -3.5625 3.6875 C-3.39599509 0.35740177 -3.31519894 0.2550153 0 0 Z " fill="#D4D5D6" transform="translate(118.4375,128.8125)"/>
<path d="M0 0 C3.63 0 7.26 0 11 0 C11 1.32 11 2.64 11 4 C7.37 4 3.74 4 0 4 C0 2.68 0 1.36 0 0 Z " fill="#DBD7D9" transform="translate(87,249)"/>
<path d="M0 0 C2.625 0.375 2.625 0.375 5 1 C5.625 2.875 5.625 2.875 6 5 C5.34 5.66 4.68 6.32 4 7 C1.375 6.625 1.375 6.625 -1 6 C-1.625 4.125 -1.625 4.125 -2 2 C-1.34 1.34 -0.68 0.68 0 0 Z " fill="#D2D4D5" transform="translate(131,129)"/>
<path d="M0 0 C0.33 0.99 0.66 1.98 1 3 C2.98 3 4.96 3 7 3 C7 4.32 7 5.64 7 7 C4.69 7 2.38 7 0 7 C0 4.69 0 2.38 0 0 Z " fill="#D9D5D7" transform="translate(72,233)"/>
<path d="M0 0 C2.31 0 4.62 0 7 0 C7 1.32 7 2.64 7 4 C4.69 4 2.38 4 0 4 C0 2.68 0 1.36 0 0 Z " fill="#D5D6D7" transform="translate(87,236)"/>
<path d="M0 0 C2.31 0 4.62 0 7 0 C7 0.99 7 1.98 7 3 C4.69 3 2.38 3 0 3 C0 2.01 0 1.02 0 0 Z " fill="#D1D3D4" transform="translate(87,243)"/>
<path d="M0 0 C2.31 0 4.62 0 7 0 C7 0.99 7 1.98 7 3 C4.69 3 2.38 3 0 3 C0 2.01 0 1.02 0 0 Z " fill="#D1D3D4" transform="translate(72,243)"/>
<path d="M0 0 C2.31 0 4.62 0 7 0 C6.67 0.99 6.34 1.98 6 3 C4.02 3 2.04 3 0 3 C0 2.01 0 1.02 0 0 Z " fill="#D4D6D7" transform="translate(73,250)"/>
</svg>
